<svg width="8" height="6" viewBox="0 0 8 6" fill="none" xmlns="http://www.w3.org/2000/svg">
<path fill-rule="evenodd" clip-rule="evenodd" d="M5.91998 3.9996C5.9136 3.99598 5.90553 3.99779 5.90131 4.00379C5.57398 4.46971 5.18553 4.9391 4.66969 5.305C4.47386 5.42996 4.29046 5.57979 4.06416 5.65812C3.6756 5.81914 3.21865 5.86017 2.82263 5.79738C2.42101 5.73646 2.05732 5.59968 1.73155 5.42312C1.44184 5.2677 1.16208 5.10792 0.895991 4.93571C0.727511 4.82256 0.55468 4.71376 0.398634 4.58507C0.248805 4.4483 0.122601 4.28542 0.0175338 4.10699C-0.046501 3.99384 0.0716214 3.90183 0.261861 3.84836C0.689351 3.73474 1.09379 3.98286 1.46995 4.21559C1.88761 4.474 2.30597 4.6911 2.72254 4.85178C3.10426 4.98918 3.46298 4.88411 3.81237 4.69076C4.19347 4.48436 4.5323 4.1418 4.82449 3.73584C5.00789 3.48902 5.1714 3.21423 5.32807 2.93509C5.55996 2.50612 5.79434 2.06347 5.99701 1.6059C6.15119 1.24967 6.25626 0.867948 6.42474 0.504256C6.46266 0.424057 6.49126 0.340128 6.5354 0.262416C6.71694 -0.0173477 6.86304 -0.0509194 7.12477 0.0566342C7.18134 0.0790153 7.23668 0.0945577 7.28144 0.116939C7.41697 0.181595 7.54566 0.432139 7.49344 0.649111C7.34672 1.30003 7.07504 1.90805 6.74989 2.5515C6.51424 3.02526 6.2486 3.50881 5.93901 3.99487C5.93494 4.00126 5.92657 4.00334 5.91998 3.9996Z" fill="#231F20"/>
</svg>
