<svg width="6" height="4" viewBox="0 0 6 4" fill="none" xmlns="http://www.w3.org/2000/svg">
<path fill-rule="evenodd" clip-rule="evenodd" d="M0.677998 3.90849C0.663077 4.0204 0.510762 3.96942 0.278247 3.83513C0.204265 3.79223 0.0289466 3.61443 0.0221079 3.57029C0.0090523 3.48325 -0.00213824 3.39683 0.00034855 3.32223C0.00034855 3.27747 0.270787 2.79503 0.361554 2.62033C0.447349 2.45185 0.564228 2.31508 0.691054 2.19074C0.950301 1.93896 1.22696 1.70831 1.50175 1.48698C1.56329 1.43849 1.63417 1.40119 1.7125 1.37881C1.98107 1.29923 2.19618 1.15002 2.39015 0.975325C2.42248 0.946105 2.46351 0.928076 2.46786 0.861555C2.47905 0.752136 3.03174 0.342438 3.12127 0.321922C3.35378 0.27343 3.56267 0.191366 3.78275 0.121736C3.81508 0.113654 3.83062 0.0788387 3.89155 0.11241C4.0333 0.190744 4.07371 0.131683 4.13588 0.101841C4.22229 0.0595661 4.31119 0.0210209 4.41626 0.00174827C4.46848 -0.00819887 4.5549 0.0266161 4.63137 0.0477538C4.701 0.0670264 4.81352 0.241723 4.81601 0.269078C4.82285 0.34679 4.91237 0.401499 4.96957 0.466156C4.98884 0.487915 5.01433 0.516513 5.02739 0.535786C5.32105 0.929423 4.59066 1.48301 4.23305 1.81962C4.17021 1.87877 4.12332 1.92416 4.10852 1.94206C4.07619 1.98123 4.01527 1.98123 3.96304 1.9918C3.93818 1.99926 3.45574 2.45559 3.43398 2.46429C3.31213 2.52459 3.23068 2.64023 3.05164 2.61225C3.0162 2.60666 2.99755 2.62655 2.97703 2.64334C2.80047 2.78446 2.58909 2.8715 2.38891 2.97408C2.28819 3.02692 2.20675 3.1065 2.11474 3.17054C2.09795 3.18297 2.07122 3.18048 2.0507 3.1867C2.02397 3.19416 1.99351 3.19603 1.97361 3.21281C1.77343 3.38689 1.50921 3.48263 1.33264 3.68468C1.28913 3.72571 0.975169 3.81586 0.93165 3.8743C0.905539 3.90414 0.684215 3.86248 0.677998 3.90849Z" fill="#231F20"/>
</svg>
