<svg width="20" height="37" viewBox="0 0 20 37" fill="none" xmlns="http://www.w3.org/2000/svg">
<path fill-rule="evenodd" clip-rule="evenodd" d="M6.34177 25.2388C6.34498 25.235 6.34498 25.2295 6.34175 25.2257C4.8544 23.5005 3.51418 21.6319 2.44248 19.6077C2.23546 19.244 2.05579 18.8661 1.87923 18.4862C1.6921 18.1113 1.52362 17.729 1.38 17.3348C0.283331 14.5931 -0.164912 11.5997 0.0539251 8.67333C0.0893618 8.02304 0.197537 7.3771 0.275871 6.73115C0.415131 6.09578 0.492843 5.44673 0.676243 4.82752C1.04242 3.21795 1.66785 1.6177 2.63707 0.26613C2.94171 -0.153516 2.96906 -0.0453405 2.8211 0.370575C2.66692 0.78649 2.40829 1.53936 2.06511 2.39358C1.91342 2.77343 1.77913 3.16075 1.65915 3.55118C1.53791 3.93974 1.45585 4.34881 1.34022 4.74297C1.22707 5.13961 1.12511 5.53812 1.05734 5.94471C0.98647 6.35005 0.879538 6.7498 0.836641 7.1595C0.576772 8.7871 0.557499 10.4483 0.716032 12.0989C0.904406 14.079 1.52113 16.0864 2.38156 17.9316C3.31721 19.9689 4.51584 21.8931 5.92523 23.6581C6.7813 24.7529 7.70701 25.7967 8.68059 26.7927C10.1484 28.3096 11.7232 29.7395 13.3284 31.0942C14.5774 32.148 15.8481 33.1234 17.1046 34.148C17.38 34.3755 17.6573 34.5881 17.9258 34.83C18.9311 35.7128 19.2028 36.056 19.3023 36.3625C19.3259 36.4315 19.3657 36.5135 19.3713 36.5608C19.3874 36.7224 18.9386 36.4116 18.1882 35.8011C15.947 34.0062 13.5205 32.1474 11.214 30.1088C9.50522 28.595 7.84791 26.9938 6.3418 25.2518C6.33856 25.248 6.33855 25.2425 6.34177 25.2388Z" fill="#231F20"/>
</svg>
