<svg width="20" height="10" viewBox="0 0 20 10" fill="none" xmlns="http://www.w3.org/2000/svg">
<path fill-rule="evenodd" clip-rule="evenodd" d="M6.11142 8.38637C6.11055 8.39563 6.11689 8.40403 6.12604 8.40569C7.70604 8.69275 9.38562 8.64429 11.0325 8.37601C11.6312 8.27094 12.2379 8.10433 12.8186 7.97688C13.7953 7.72385 14.7906 7.25882 15.6989 6.71981C16.6054 6.17209 17.4509 5.50128 18.0402 4.68624C18.537 3.95139 18.6532 3.07045 18.2124 2.34866C17.9383 1.89047 17.4782 1.51248 16.9821 1.20225C16.4754 0.903836 15.9352 0.632154 15.3607 0.427616C15.0039 0.307628 15.0573 0.190749 15.4248 0.0863044C15.7791 0.00548382 16.5084 -0.108287 17.2513 0.223078C17.8997 0.512788 18.5382 0.905701 19.0555 1.53734C19.187 1.68887 19.2927 1.86261 19.3841 2.04683C19.5785 2.43833 19.7021 2.8648 19.7368 3.30048C19.7424 3.51683 19.7051 3.73069 19.6828 3.94518C19.5186 4.78571 19.0816 5.45279 18.6078 6.00548C18.1304 6.56563 17.5684 6.98776 16.9902 7.36886C16.2964 7.81897 15.5771 8.22494 14.8242 8.58676C14.4474 8.76706 14.0608 8.93305 13.6598 9.07666C13.4614 9.15189 13.2463 9.20659 13.0412 9.27063L12.4425 9.40119C10.6968 9.78975 8.88699 9.99304 7.07723 9.84073C5.96502 9.74312 4.8584 9.50998 3.80462 9.10215C3.00885 8.78446 2.25846 8.33435 1.59822 7.76364C0.947305 7.18297 0.415133 6.43383 0.152155 5.5647C-0.0380841 4.8914 -0.0666822 4.13417 0.162724 3.44658C0.398969 2.76147 0.840995 2.17148 1.36819 1.71888C1.60071 1.51807 1.83633 1.33405 2.10055 1.17987C2.58796 0.892023 2.95414 0.806851 3.21152 0.774523C3.47388 0.754007 3.64298 0.81369 3.79468 0.938651C3.86368 0.993982 3.94575 1.0431 3.99051 1.10154C4.14096 1.30359 3.79095 1.59454 3.21463 1.95823C2.35607 2.48668 1.63428 3.21841 1.4372 3.99926C1.31784 4.38845 1.3396 4.77265 1.43099 5.17862C1.54165 5.58459 1.77976 5.98061 2.07071 6.3499C2.99322 7.43968 4.52139 8.09543 6.09658 8.36698C6.10583 8.36857 6.1123 8.37702 6.11142 8.38637Z" fill="#231F20"/>
</svg>
