<svg width="17" height="25" viewBox="0 0 17 25" fill="none" xmlns="http://www.w3.org/2000/svg">
<path fill-rule="evenodd" clip-rule="evenodd" d="M7.97974 3.20111C7.98808 3.19857 7.99355 3.19061 7.99295 3.18191C7.97156 2.87514 7.97003 2.56055 7.98716 2.23874L8.02384 1.73454L8.08414 1.37085C8.11896 1.23967 8.16621 1.11285 8.20662 0.983533C8.37945 0.463794 8.78355 0.125591 9.26226 0.0267416C9.74594 -0.0689997 10.2501 0.0969933 10.6381 0.450117C10.732 0.541506 10.8302 0.635383 10.9079 0.739206C10.9943 0.843651 11.0764 0.944988 11.1118 1.01275C11.2107 1.16693 11.289 1.31863 11.3636 1.47032C11.5116 1.77247 11.6253 2.07088 11.7273 2.36805C11.9194 2.96737 12.0804 3.58906 12.1531 4.20579C12.4596 6.6733 12.0885 9.16133 11.0086 11.3963C10.8103 11.8035 10.5784 12.1977 10.3223 12.5794C10.1923 12.7715 10.0182 12.9655 9.8653 13.1557C9.68315 13.3304 9.49788 13.5089 9.28961 13.6593C8.43851 14.276 7.29832 14.4383 6.36391 14.217C5.524 14.0448 4.7792 13.6885 4.10342 13.2633C3.42639 12.8331 2.81775 12.3326 2.26693 11.7507C1.7074 11.1501 1.27283 10.4911 0.907277 9.79111C0.546071 9.09046 0.2489 8.35002 0.0996931 7.54865C-0.0470273 6.75785 -0.0737602 5.86945 0.313557 5.04694C0.496957 4.64719 0.749366 4.28909 1.11617 3.98695C1.47551 3.68418 1.97784 3.50886 2.45468 3.52379C3.42204 3.55611 4.15067 4.13864 4.70025 4.67019C5.26786 5.22288 5.73724 5.84955 6.14756 6.50047C7.59798 8.82189 8.40867 11.4256 9.17833 13.9254C9.68128 15.5399 10.1227 17.198 10.4037 18.8915C10.5355 19.7395 10.6368 20.595 10.6629 21.4541C10.6891 22.3139 10.6449 23.1725 10.5641 24.023C10.4348 25.0836 10.2781 24.9139 10.1134 24.0217C10.0226 23.5455 9.90323 22.9276 9.76583 22.2101C9.60171 21.4697 9.43696 20.6167 9.27967 19.6879C8.99866 18.0404 8.52928 16.4277 8.02633 14.8039C7.53643 13.1613 7.04715 11.5294 6.45281 9.97513C5.85723 8.42524 5.13295 6.90519 4.08912 5.72646C3.83174 5.43364 3.54078 5.15512 3.26786 4.96737C2.98437 4.78023 2.6816 4.6646 2.42484 4.66522C2.16746 4.65838 1.94302 4.75039 1.72543 4.96053C1.50784 5.1719 1.32319 5.48835 1.22994 5.79484C0.988098 6.57134 1.17461 7.56792 1.54141 8.46565C1.90634 9.37084 2.45219 10.2543 3.11679 10.9493C3.81184 11.6531 4.64803 12.2586 5.53394 12.6602C6.41551 13.042 7.38909 13.2235 8.15067 12.8673C8.57155 12.6845 8.93338 12.3624 9.23242 11.9583C9.53643 11.5188 9.805 11.0401 10.0276 10.5378C10.4603 9.52689 10.7487 8.43643 10.8712 7.32857C11.0049 6.22071 10.9769 5.09357 10.7811 4.00995C10.6704 3.47343 10.5243 2.94436 10.3173 2.4383C10.2147 2.189 10.0984 1.95027 9.96726 1.74511C9.85847 1.57414 9.80313 1.50887 9.67569 1.43613C9.52524 1.35096 9.33624 1.4411 9.27656 1.59715C9.24361 1.67051 9.21563 1.75382 9.20382 1.82904C9.17647 1.95338 9.146 2.13429 9.14041 2.29283C9.10808 2.95555 9.1833 3.65248 9.31262 4.33137C9.4438 5.01088 9.63155 5.6848 9.8939 6.31645C10.15 6.93193 10.4988 7.57725 10.9446 7.88561C11.3132 8.11129 11.7683 8.22195 12.2054 8.13926C12.648 8.06466 13.0826 7.82717 13.4637 7.51446C14.2215 6.88219 14.8289 5.97887 15.1199 5.0401C15.2635 4.59559 15.2678 4.08456 15.2038 3.60025C15.1342 3.12341 14.9601 2.64906 14.6748 2.40597C14.3794 2.16103 14.0848 2.16413 13.7733 2.4582C13.46 2.75848 13.2044 3.21232 13.0117 3.6761C12.8526 4.03855 12.7599 4.40784 12.6685 4.81567C12.566 5.21045 12.4976 5.61331 12.4317 6.01555C12.3129 6.82126 12.2414 7.63258 12.224 8.44452C12.1873 10.0684 12.3104 11.691 12.5921 13.2906C12.7164 13.9956 12.8712 14.6783 13.0471 15.3758C13.3679 16.6714 13.6446 17.5039 13.7938 18.1063C13.9505 18.7062 13.9753 19.0805 13.93 19.4162C13.9088 19.5692 13.9063 19.7625 13.8678 19.8651C13.7683 20.2058 12.9987 19.3056 12.3086 17.3646C11.3095 14.4924 10.8097 11.3485 10.9464 8.1461C10.9893 7.3466 11.0646 6.54275 11.1988 5.742C11.2741 5.34349 11.3188 4.93815 11.4152 4.53964L11.547 3.93224C11.6054 3.70283 11.6738 3.49643 11.7497 3.28568C11.9057 2.86852 12.0904 2.4582 12.3614 2.04353C12.6325 1.64813 12.9943 1.16134 13.782 0.899604C14.1575 0.814431 14.5753 0.806349 14.929 0.978559C15.3027 1.10103 15.5688 1.32982 15.7857 1.57041C16.2159 2.06404 16.377 2.58191 16.4882 3.06435C16.6256 3.79236 16.643 4.45944 16.4584 5.22972C16.2644 5.931 15.9567 6.52782 15.5837 7.08424C15.2069 7.63631 14.7587 8.14299 14.2035 8.57196C13.6514 8.99285 12.9626 9.35344 12.1482 9.41809C11.9499 9.44731 11.7397 9.41187 11.5377 9.40255C11.3356 9.37706 11.1398 9.31303 10.9433 9.26205C10.7593 9.18744 10.5821 9.09916 10.4049 9.01212C10.2066 8.89587 10.035 8.75474 9.89142 8.61424C9.34432 8.0429 9.06332 7.44794 8.81277 6.85608C8.34463 5.67085 8.0646 4.4776 7.96656 3.22043C7.96588 3.2117 7.97136 3.20366 7.97974 3.20111Z" fill="#231F20"/>
</svg>
