<svg width="16" height="7" viewBox="0 0 16 7" fill="none" xmlns="http://www.w3.org/2000/svg">
<path fill-rule="evenodd" clip-rule="evenodd" d="M3.4923 4.78717C3.48953 4.79514 3.49342 4.80388 3.50121 4.80713C4.37671 5.17191 5.34963 5.41061 6.34469 5.52749C6.71025 5.57225 7.08016 5.56604 7.44882 5.58033C8.75066 5.63753 10.0817 5.54117 11.3568 5.21602C11.9207 5.07054 12.4752 4.87098 12.9832 4.60987C13.6366 4.26793 14.2054 3.82653 14.7102 3.33601C14.8706 3.18369 14.99 3.27073 15.0124 3.54055C15.0484 3.81472 14.9353 4.29156 14.5635 4.62976C13.2443 5.77803 11.6117 6.31332 9.98659 6.47247C9.01301 6.5651 8.00897 6.71431 7.00742 6.68571C5.91013 6.65276 4.80661 6.50977 3.74413 6.16722C3.09197 5.95708 2.45411 5.67608 1.86537 5.29684C1.4221 5.00651 1.00805 4.65401 0.667357 4.23001C0.508202 4.00931 0.348426 3.78923 0.229682 3.54241C0.0935306 3.32109 -0.00594091 2.96859 0.000276059 2.66893C0.00711472 2.18214 0.193002 1.75006 0.431112 1.38948C0.672952 1.02765 0.97634 0.721775 1.32636 0.473097C1.47805 0.359948 1.63596 0.259855 1.81004 0.174682C2.47401 -0.120623 2.7774 -0.00623132 2.9266 0.256125C2.96204 0.317051 3.00369 0.37549 3.0211 0.435173C3.06773 0.637225 2.85262 0.821869 2.53307 0.997809C2.04566 1.25457 1.58685 1.67484 1.33755 2.11002C1.21258 2.32513 1.15788 2.53526 1.17031 2.6739C1.17217 2.74602 1.19393 2.80135 1.22191 2.85979C1.25548 2.93191 1.34874 3.08174 1.40531 3.19115C1.84003 3.87014 2.60137 4.41257 3.48313 4.76707C3.49106 4.77025 3.49511 4.7791 3.4923 4.78717Z" fill="#231F20"/>
</svg>
