<svg width="3" height="7" viewBox="0 0 3 7" fill="none" xmlns="http://www.w3.org/2000/svg">
<path fill-rule="evenodd" clip-rule="evenodd" d="M1.92693 5.9281C1.99594 6.02571 1.86103 6.11461 1.61795 6.19605C1.54023 6.22216 1.30337 6.22589 1.26669 6.19916C1.19706 6.14694 1.12681 6.09471 1.0752 6.04125C1.04723 6.00705 0.856989 5.48234 0.7656 5.31013C0.682914 5.14165 0.639395 4.97193 0.603337 4.80159C0.53122 4.45592 0.42491 4.1171 0.364605 3.77392C0.349063 3.69807 0.350928 3.61974 0.364605 3.53954C0.414963 3.26289 0.367714 2.99866 0.278811 2.74253C0.263891 2.69963 0.262647 2.653 0.200477 2.6213C0.176341 2.60979 0.148816 2.56493 0.121191 2.50111C-0.0818552 2.03204 0.0171118 1.50445 0.0817334 0.997423C0.0860853 0.961365 0.0593523 0.93028 0.112818 0.885518C0.237158 0.780451 0.193017 0.715173 0.201721 0.636218C0.203638 0.608577 0.205391 0.580894 0.20756 0.553066C0.220574 0.386109 0.308068 0.243305 0.408124 0.109019C0.451643 0.0505794 0.577847 0.0443625 0.601472 0.0549313C0.65929 0.0885029 0.718351 0.0344153 0.771817 0.0163861C0.790468 0.0101692 0.814714 0.0020871 0.832121 0.000222013C0.860935 -0.00525261 1.01141 0.0913 1.16346 0.203724C1.41562 0.390158 1.57779 0.674797 1.70374 0.961987C1.80072 1.18269 1.90641 1.41396 1.93377 1.45997C1.99167 1.55406 1.95396 1.67724 1.98924 1.78194C2.0606 1.99373 2.17853 2.34442 2.17809 2.3664C2.18493 2.51685 2.26016 2.65798 2.15261 2.8277C2.13209 2.86127 2.14328 2.88987 2.15012 2.91971C2.20483 3.17212 2.18618 3.43696 2.18182 3.69683C2.17934 3.82987 2.20918 3.95919 2.2098 4.09161C2.21042 4.11523 2.19239 4.14072 2.18493 4.16559C2.17561 4.19667 2.16007 4.22838 2.16193 4.25822C2.18369 4.56845 2.12401 4.88427 2.17063 5.19015C2.18058 5.26102 2.04878 5.6073 2.06557 5.68688C2.07365 5.73289 1.89771 5.88955 1.92693 5.9281Z" fill="#231F20"/>
</svg>
