<svg width="4" height="5" viewBox="0 0 4 5" fill="none" xmlns="http://www.w3.org/2000/svg">
<path fill-rule="evenodd" clip-rule="evenodd" d="M1.77848 3.33801C1.78329 3.34183 1.79012 3.34172 1.79476 3.33771C1.99338 3.16589 2.16374 2.92402 2.32017 2.67066C2.3811 2.57927 2.40348 2.46301 2.46068 2.36603C2.65589 2.01353 2.8281 1.63243 2.99906 1.23827C3.08113 1.06668 3.14081 0.883283 3.20795 0.700504C3.29872 0.468611 3.35716 0.205011 3.61827 0.015394C3.69288 -0.0430455 3.77867 0.0738335 3.85701 0.21558C3.93161 0.365409 4.02238 0.489749 3.99875 0.610358C3.8856 0.99954 3.83649 1.50436 3.55611 1.94141C3.40441 2.2075 3.34224 2.52394 3.20671 2.81489C3.0631 3.13569 2.87037 3.44467 2.65464 3.73811C2.49922 3.90721 2.36307 4.08689 2.17407 4.22739C2.03884 4.33739 1.89357 4.43444 1.74018 4.51726L1.73702 4.51896C1.58781 4.61471 1.41996 4.6632 1.25707 4.72475C1.13211 4.78256 1.00715 4.82173 0.877214 4.85779C0.749766 4.89136 0.61548 4.95229 0.48368 4.96286C0.425862 4.97032 0.368666 4.97156 0.309605 4.96659C0.0913894 4.93923 0.0273547 4.87333 0.0111905 4.65387C0.00683866 4.60725 0 4.56186 0 4.51959C0.000621697 4.38654 0.0994715 4.21931 0.226298 4.159C0.614858 3.96628 0.903947 3.90286 1.18682 3.76485C1.37292 3.64241 1.58614 3.54108 1.76061 3.33976C1.76515 3.33452 1.77304 3.3337 1.77848 3.33801Z" fill="#231F20"/>
</svg>
