<svg width="6" height="4" viewBox="0 0 6 4" fill="none" xmlns="http://www.w3.org/2000/svg">
<path fill-rule="evenodd" clip-rule="evenodd" d="M0.643584 3.15928C0.629285 3.26808 0.485673 3.22021 0.262484 3.08841C0.190989 3.04675 0.0225093 2.8733 0.0169141 2.8304C0.00572352 2.74709 -0.00360193 2.66441 0.00137164 2.59354C0.00137164 2.55064 0.283622 2.09991 0.383715 1.94138C0.47697 1.78657 0.599444 1.66161 0.732487 1.54971C0.996708 1.31471 1.27958 1.09649 1.57862 0.897547C1.64514 0.854029 1.71974 0.822944 1.79932 0.802428C2.0766 0.73715 2.31533 0.614675 2.55157 0.471685C2.59136 0.448682 2.63737 0.43687 2.65975 0.377187C2.68897 0.269012 3.39957 -0.0126166 3.50774 0.000439038C3.76699 0.0110079 4.01442 -0.00204775 4.26621 0.0296588C4.30165 0.0340107 4.3346 0.00852109 4.37501 0.0582568C4.46764 0.172649 4.53478 0.141564 4.60877 0.141564C4.7101 0.139077 4.8133 0.15089 4.91651 0.184461C4.96748 0.200625 5.02157 0.267147 5.07255 0.319369C5.11856 0.365997 5.10674 0.552506 5.09431 0.573643C5.05701 0.635191 5.0968 0.71912 5.1055 0.795589C5.11198 0.848696 5.09751 0.898646 5.05961 0.936406C5.02004 0.975826 4.96224 1.02902 4.90122 1.08317C4.72472 1.2398 4.48907 1.36735 4.26932 1.45334C4.09649 1.52173 3.92179 1.60379 3.88884 1.62928C3.81626 1.67853 3.71892 1.64605 3.64251 1.68912C3.60778 1.70869 3.5682 1.73166 3.52771 1.75549C3.33448 1.86921 3.13904 2.06073 2.91961 2.01469C2.91035 2.01275 2.90083 2.01029 2.89102 2.00728C2.86055 1.99919 2.84253 2.01598 2.82263 2.02841C2.65166 2.13535 2.45583 2.19938 2.26621 2.28393C2.17109 2.32931 2.08965 2.39646 2.00199 2.45428C1.98583 2.46484 1.96158 2.46298 1.94169 2.46795C1.91682 2.47417 1.88884 2.47604 1.86957 2.49096C1.6669 2.63643 1.42754 2.74274 1.2572 2.93485C1.21617 2.97464 0.923969 3.06727 0.882316 3.12384C0.85807 3.15306 0.64918 3.11452 0.643584 3.15928Z" fill="#231F20"/>
</svg>
