<svg width="13" height="4" viewBox="0 0 13 4" fill="none" xmlns="http://www.w3.org/2000/svg">
<path fill-rule="evenodd" clip-rule="evenodd" d="M7.70493 2.5122C7.70336 2.50766 7.69855 2.5051 7.69391 2.50633C7.05932 2.67429 6.41368 2.79429 5.76618 2.89333C5.52683 2.92566 5.29245 2.95675 5.05247 2.98907C4.20696 3.05 3.35648 3.03135 2.51844 2.91385C2.14542 2.86474 1.77364 2.79884 1.40684 2.72112C0.941814 2.60362 0.45316 2.48426 0.056518 2.17838C-0.0696864 2.08886 0.0304068 1.97384 0.209455 1.90297C0.392856 1.82899 0.629101 1.81096 0.865345 1.88618C1.69096 2.19579 2.59615 2.33505 3.52434 2.41649C4.08263 2.45877 4.6664 2.39722 5.23401 2.31516C5.86192 2.24366 6.48486 2.11435 7.10221 1.96017C7.48268 1.8694 7.85632 1.74444 8.23059 1.6288L9.07361 1.32977C9.34902 1.21786 9.62256 1.09912 9.89238 0.976643C10.3052 0.772726 10.6888 0.531508 11.0885 0.317022L11.3465 0.16595C11.676 -0.0124769 11.8066 -0.0261542 11.9347 0.0279334C11.9639 0.040989 11.9981 0.0496928 12.0204 0.0658569C12.0944 0.117458 12.0018 0.260448 11.7873 0.4482C11.155 1.01146 10.3922 1.47524 9.57842 1.83769C8.98354 2.12244 8.35476 2.34186 7.71602 2.51803C7.71136 2.51932 7.70651 2.51676 7.70493 2.5122Z" fill="#231F20"/>
</svg>
