<svg width="4" height="4" viewBox="0 0 4 4" fill="none" xmlns="http://www.w3.org/2000/svg">
<path fill-rule="evenodd" clip-rule="evenodd" d="M2.56915 1.43204C2.56397 1.42462 2.55433 1.4218 2.54596 1.42525C2.39299 1.48835 2.21411 1.55863 2.05919 1.67858C2.002 1.72396 1.9678 1.78862 1.91061 1.83525C1.70172 1.99875 1.49594 2.19024 1.34424 2.41653C1.28829 2.51601 1.25348 2.63351 1.26031 2.73609C1.25658 2.88219 1.30881 2.96052 1.20063 3.07305C1.16209 3.11097 0.922111 3.2235 0.65416 3.2521C0.395534 3.29561 0.057331 3.1719 0.030598 3.00031C-0.0396537 2.69319 0.0206509 2.42462 0.114527 2.20081C0.205295 1.9714 0.345798 1.78303 0.5149 1.62387C0.721303 1.44171 0.812692 1.19117 0.992984 0.997823C1.19317 0.790176 1.41449 0.604289 1.6669 0.451973C1.81487 0.353124 1.99019 0.28598 2.15556 0.211999C2.41538 0.103527 2.69972 0.0561576 2.98048 0.0349148C2.98382 0.0346625 2.98715 0.0344218 2.9905 0.0341933C3.10427 0.0323282 3.22052 0.00497357 3.33927 0C3.45552 0.00559527 3.57862 0.0118122 3.70047 0.0317065C3.75643 0.0354367 3.79746 0.0658998 3.84222 0.0938762C3.99764 0.216972 4.00137 0.324526 3.89009 0.546471C3.8646 0.59745 3.84098 0.647808 3.81238 0.695057C3.71664 0.850481 3.57303 0.961143 3.46174 1.02083C3.11608 1.21604 3.09805 1.27323 2.95195 1.30743C2.86084 1.32781 2.72984 1.36784 2.59408 1.43811C2.58541 1.4426 2.57473 1.44004 2.56915 1.43204Z" fill="#231F20"/>
</svg>
