<svg width="16" height="6" viewBox="0 0 16 6" fill="none" xmlns="http://www.w3.org/2000/svg">
<path fill-rule="evenodd" clip-rule="evenodd" d="M5.50923 3.76401C5.50802 3.77337 5.51407 3.78213 5.52326 3.78427C6.33883 3.97359 7.22509 4.00191 8.1089 3.92224C8.43529 3.89986 8.75235 3.80909 9.07688 3.75562C10.2252 3.56849 11.3597 3.21102 12.4452 2.73542C12.9214 2.51409 13.3772 2.24241 13.79 1.93343C14.3352 1.54362 14.7691 1.06057 15.2174 0.611701C15.3684 0.476171 15.5034 0.559479 15.5674 0.817483C15.5972 0.944931 15.6227 1.13144 15.5848 1.32541C15.54 1.50508 15.4536 1.7034 15.3156 1.88121C14.2805 3.03508 12.9923 3.86193 11.5655 4.29774C10.7107 4.54269 9.85959 4.89892 8.95813 5.05497C7.97399 5.23339 6.96062 5.29619 5.94912 5.19485C5.32867 5.12895 4.70386 4.98161 4.11885 4.77334C3.23169 4.44757 2.39364 3.94773 1.69858 3.29619C1.15584 2.79759 0.656618 2.23682 0.297899 1.57844C0.224538 1.43172 0.152422 1.28749 0.0908737 1.13393C-0.0887966 0.547667 0.0137833 0.323234 0.259975 0.141699C0.31655 0.100045 0.367529 0.0515526 0.421616 0.024198C0.59507 -0.0671914 0.858669 0.107505 1.08745 0.426436C1.42379 0.902034 1.71661 1.35028 2.05046 1.76122C2.38556 2.17092 2.78033 2.52404 3.22796 2.82308C3.88114 3.26141 4.69066 3.58265 5.49456 3.74356C5.50407 3.74547 5.51048 3.75439 5.50923 3.76401Z" fill="#231F20"/>
</svg>
