<svg width="17" height="8" viewBox="0 0 17 8" fill="none" xmlns="http://www.w3.org/2000/svg">
<path fill-rule="evenodd" clip-rule="evenodd" d="M7.91109 7.98387C7.91057 7.97484 7.90322 7.96772 7.89418 7.96749C6.72363 7.93825 5.52557 7.82401 4.34661 7.49353C3.91577 7.37292 3.47561 7.25418 3.06156 7.05399C2.33231 6.70709 1.65466 6.21097 1.12124 5.59425C0.852049 5.28154 0.6214 4.9682 0.414997 4.59705C0.198646 4.2259 0.0724417 3.79506 0.0220843 3.36298C-0.0288948 2.97815 0.0121371 2.58213 0.106635 2.20849C0.209215 1.83361 0.391994 1.4923 0.605236 1.1802C1.17782 0.394379 2.14829 -0.0762455 3.0541 0.0101703C3.33821 0.0281995 3.2978 0.17492 3.11565 0.397487C2.92106 0.594565 2.6587 0.996181 2.36712 1.21626C2.08674 1.4065 1.92448 1.6931 1.74356 1.91008C1.57633 2.14694 1.46877 2.40681 1.4209 2.67103C1.34941 2.9309 1.33635 3.21004 1.39168 3.50038C1.44888 3.78946 1.59249 4.07731 1.7877 4.41738C2.02519 4.79475 2.3522 5.123 2.72957 5.39095C3.11378 5.65207 3.54275 5.85474 3.98478 6.03192C4.96209 6.41924 6.06125 6.58834 7.1716 6.65859C7.85733 6.69776 8.55363 6.70771 9.23874 6.66854C10.2788 6.60762 11.3276 6.4783 12.313 6.17305C13.0852 5.95732 13.8001 5.62782 14.4821 5.25232C14.6338 5.17087 14.7749 5.08011 14.9229 4.99245C15.4725 4.66668 15.6789 4.60762 15.9288 4.69714C15.9848 4.71704 16.0488 4.72823 16.0936 4.75372C16.2347 4.82335 16.1302 5.13979 15.7504 5.50037C15.184 6.02633 14.5225 6.4926 13.8026 6.86686C13.442 7.05088 13.0715 7.22993 12.686 7.36671C12.2969 7.48918 11.9002 7.59238 11.5005 7.6732C10.3203 7.92198 9.11308 8.00197 7.9284 8.00024C7.9192 8.00023 7.91162 7.99305 7.91109 7.98387Z" fill="#231F20"/>
</svg>
