<svg width="6" height="5" viewBox="0 0 6 5" fill="none" xmlns="http://www.w3.org/2000/svg">
<path fill-rule="evenodd" clip-rule="evenodd" d="M0.0686539 0.778364C-0.0637675 0.760957 0.0039974 0.583773 0.197967 0.324526C0.259515 0.24184 0.496381 0.0453839 0.54736 0.0366801C0.64621 0.0186509 0.742573 0.00186509 0.820907 0C0.866912 0.00373018 1.31889 0.243705 1.4911 0.294684C1.65149 0.353124 1.78205 0.441405 1.90763 0.537768L2.70651 1.09543C2.7662 1.13708 2.81593 1.19241 2.86069 1.25831C3.0099 1.48834 3.22376 1.63444 3.45939 1.74759C3.49855 1.76624 3.5315 1.79795 3.59492 1.77494C3.69501 1.73889 4.30676 2.10258 4.36893 2.18589C4.51689 2.39105 4.68786 2.56388 4.85074 2.75225C4.87437 2.77898 4.91602 2.78023 4.91105 2.84986C4.89924 3.01088 4.97384 3.02704 5.03166 3.07305C5.11124 3.1377 5.1877 3.20982 5.24987 3.3037C5.28096 3.3497 5.28096 3.44606 5.28904 3.52813C5.29712 3.60273 5.16408 3.77681 5.13859 3.78924C5.06399 3.82468 5.04285 3.93161 4.99995 4.01181C4.98565 4.03854 4.96638 4.07336 4.95208 4.09387C4.91913 4.13739 4.23402 4.17034 4.18056 4.13739C4.17434 4.13428 3.97477 4.05346 3.76215 3.9658C3.54953 3.88063 3.32572 3.79235 3.27599 3.77929C3.22439 3.76624 3.19765 3.71091 3.16408 3.66677C3.14978 3.6506 2.4883 3.39571 2.46529 3.37519C2.34966 3.28629 2.19423 3.25272 2.14139 3.06621C2.13144 3.02953 2.10222 3.01896 2.07673 3.0059C1.85168 2.88529 1.66828 2.70127 1.47991 2.52595C1.3823 2.43767 1.26666 2.37177 1.1616 2.2922C1.14295 2.2779 1.13611 2.24806 1.12243 2.22692C1.10502 2.20081 1.09383 2.16537 1.07021 2.14796C0.821529 1.9571 0.633154 1.69723 0.37142 1.51507C0.307385 1.47466 0.174342 1.11719 0.105334 1.07056C0.0636803 1.04383 0.120255 0.785203 0.0686539 0.778364Z" fill="#231F20"/>
</svg>
