<svg width="37" height="48" viewBox="0 0 37 48" fill="none" xmlns="http://www.w3.org/2000/svg">
<path fill-rule="evenodd" clip-rule="evenodd" d="M3.03065 7.84452C3.04086 7.849 3.05281 7.84585 3.0595 7.83693C4.0356 6.5358 5.18415 5.39068 6.43695 4.38559C7.72386 3.41699 9.10154 2.58267 10.5569 1.91435C13.4777 0.616242 16.6657 -0.0912486 19.8762 0.00946627C21.0474 0.0455247 22.2162 0.180433 23.3465 0.404865C23.916 0.517393 24.4836 0.652922 25.0462 0.818915C25.6088 0.9818 26.159 1.21991 26.7123 1.4232C28.6297 2.26125 30.3356 3.55189 31.6959 5.11049C33.0624 6.66846 34.0925 8.48257 34.7988 10.3918C36.2336 14.214 36.509 18.3632 35.9744 22.3271C35.7605 24.0934 35.385 25.836 34.9212 27.545C34.473 29.2609 33.8842 30.9283 33.2588 32.5652C32.4525 34.6691 31.4851 36.712 30.4065 38.6896C29.3365 40.6722 28.1205 42.5714 26.8006 44.3837C25.9731 45.5121 25.9321 45.2497 26.3996 44.1481C26.639 43.6016 26.9772 42.8282 27.4093 41.9162C27.8258 40.9948 28.3418 39.9386 28.9312 38.8127C29.9818 36.8176 30.8814 34.7542 31.7425 32.6852C32.5855 30.6075 33.3054 28.4826 33.8488 26.3166C34.9455 21.9958 35.2843 17.4549 34.2398 13.1223C33.9215 11.8348 33.4745 10.5659 32.8852 9.35979C32.2933 8.15431 31.5268 7.03402 30.6321 6.03619C29.7344 5.0421 28.698 4.16427 27.5274 3.51521C26.3586 2.86492 25.1171 2.36694 23.7941 2.06044C18.0061 0.61189 11.5541 2.11826 6.91814 5.92429C5.5013 7.09681 4.26972 8.49936 3.36577 10.0928C3.1631 10.5025 2.9455 10.9066 2.75215 11.32L2.27656 12.6057C2.03907 13.5009 1.79163 14.3974 1.67102 15.3175L1.58461 15.8366L1.54109 16.3613L1.45778 17.4114L1.46462 18.4652L1.47022 18.9917L1.51933 19.5171C1.60326 20.9233 1.92778 22.3054 2.32691 23.6563C2.73475 25.0091 3.32349 26.3016 3.96384 27.5618C4.63403 28.8083 5.39374 30.0051 6.21998 31.1521C8.81743 34.7132 12.0154 37.6719 15.2943 40.5683C16.0192 41.2068 16.7416 41.8167 17.4634 42.4807C20.1447 44.9146 20.8734 45.9833 21.0132 46.8487C21.0437 47.0464 21.0767 47.2945 21.0605 47.407C21.0443 47.5046 20.9834 47.4953 20.879 47.4076C20.7695 47.3193 20.6558 47.1484 20.4233 46.9283C19.9962 46.4819 19.2862 45.7869 18.3033 44.9246C15.3577 42.3961 12.1883 39.8248 9.28929 36.85C6.39592 33.8857 3.68781 30.5143 1.90789 26.5528C1.24454 25.0881 0.747804 23.5382 0.403384 21.951C0.0521252 20.3613 -0.0373991 18.7169 0.0129583 17.0887C0.0732629 15.4543 0.397789 13.8491 0.821164 12.283C1.31221 10.6978 2.05861 9.20135 3.00137 7.85273C3.00792 7.84336 3.02018 7.83993 3.03065 7.84452Z" fill="#231F20"/>
</svg>
