<svg width="575" height="9" viewBox="0 0 575 9" fill="none" xmlns="http://www.w3.org/2000/svg">
<path d="M467.737 3.48536C555.093 3.48536 542.893 3.48536 571.594 3.48536C571.101 3.77128 566.65 4.865 564.813 5.08655C562.518 5.3635 502.292 5.21237 489.439 5.21237C445.439 5.21237 246.673 4.17914 233.664 4.17914M467.737 3.48536C467.737 3.48536 257.043 5.21237 223.44 5.21237C189.836 5.21237 197.784 5.25906 126.843 5.21237C73.8059 5.17747 10.3858 5.21237 6.11804 5.21237C1.8503 5.21237 3.42504 3.14062 3.42504 3.14062C33.2563 4.17912 85.1739 4.17914 153.36 4.17914C176.856 4.17914 204.339 4.17914 233.664 4.17914M467.737 3.48536C403.876 3.48536 313.368 4.17914 233.664 4.17914" stroke="black" stroke-width="6.28125" stroke-miterlimit="10" stroke-linecap="round" stroke-linejoin="round"/>
</svg>
