<svg width="543" height="8" viewBox="0 0 543 8" fill="none" xmlns="http://www.w3.org/2000/svg">
<path d="M3 3.90803C32.2196 3.90803 57.7131 3.90803 72.7443 3.90803M72.7443 3.90803C87.7755 3.90803 154.514 4.19955 182.772 4.19956M72.7443 3.90803C72.7443 3.90803 105.34 3.00051 124.451 3.00051C143.562 3.00051 182.772 4.19956 182.772 4.19956M540 4.19956C510.094 4.19956 523.921 3.90803 494.217 3.90803C477.285 3.90803 456.571 4.3939 426.877 4.19956M262.314 3.00051C282.864 3.02858 390.276 3.96001 426.877 4.19956M262.314 3.00051C241.061 2.97147 211.031 4.19956 182.772 4.19956M262.314 3.00051C262.314 3.00051 313.843 3.00051 342.703 3.00051M426.877 4.19956C426.877 4.19956 371.563 3.00051 342.703 3.00051M182.772 4.19956C200.093 4.19956 240.25 4.19956 262.314 4.19956C284.379 4.19956 325.1 3.40019 342.703 3.00051" stroke="black" stroke-width="6" stroke-miterlimit="10" stroke-linecap="round" stroke-linejoin="round"/>
</svg>
