<svg width="108" height="91" viewBox="0 0 108 91" fill="none" xmlns="http://www.w3.org/2000/svg">
<path d="M77.2172 34.7784C87.3706 39.9695 96.1553 47.0912 101.585 56.1544C107.006 65.2045 109.102 76.2233 105.834 89.2726L105.834 89.2739C105.749 89.6159 105.402 89.8244 105.058 89.7395C104.759 89.6634 104.562 89.388 104.574 89.0898L104.592 88.9619C107.773 76.2613 105.702 65.496 100.355 56.6498C95.016 47.8168 86.4319 40.929 76.6321 35.9188C66.7437 30.8632 55.5834 27.6849 45.132 26.352C34.6879 25.02 24.9085 25.5251 17.794 27.8759C17.4509 27.9896 17.2594 27.9124 17.1476 27.8371C17.0108 27.7448 16.9332 27.6107 16.9133 27.571L16.9133 27.5696C16.8796 27.5023 16.8308 27.3831 16.8322 27.2482C16.8333 27.1484 16.8609 27.0093 17.0071 26.8477L17.0774 26.777C17.0758 26.7785 17.0833 26.7723 17.1042 26.7566C17.124 26.7417 17.1503 26.7216 17.1847 26.6979C17.2539 26.6503 17.3465 26.5901 17.4606 26.5179C17.6885 26.3735 17.9923 26.1887 18.3524 25.9743C19.0727 25.5455 20.0076 25.0049 20.9823 24.445C22.4396 23.6078 23.992 22.7252 25.043 22.1182L25.9047 21.6146C26.5774 21.2139 27.5374 20.7138 28.6852 20.1178C29.8272 19.5248 31.1442 18.8431 32.5107 18.0869C35.0674 16.6722 37.8279 14.9824 39.9803 13.099L40.4021 12.72C41.6492 11.57 42.7107 10.3161 43.2206 8.9713C43.7432 7.59219 43.6749 6.13954 42.7082 4.68267L42.709 4.68333C41.7338 3.21214 40.2412 2.38869 38.466 2.01387C36.7007 1.64116 34.6278 1.70468 32.4258 2.01964C26.7828 2.82776 20.0803 5.45198 14.3095 8.34262C8.54676 11.2293 3.63244 14.4221 1.58657 16.411L1.58591 16.4117C1.3317 16.6591 0.927027 16.6531 0.681464 16.4008C0.434681 16.1474 0.439836 15.7426 0.694328 15.4942C2.70968 13.5339 7.7124 10.2567 13.6908 7.25418C19.6614 4.25555 26.5256 1.57075 32.244 0.75205C37.5831 -0.0122483 41.7544 0.926204 43.7757 3.97424C44.8993 5.66879 45.0759 7.31682 44.5961 8.91012C44.139 10.4278 43.0749 11.9308 41.5758 13.3742L41.2698 13.662C39.0957 15.6682 36.1474 17.503 33.365 19.055C31.977 19.8292 30.6382 20.5283 29.4651 21.1422C28.5896 21.6004 27.7997 22.0145 27.1553 22.3742L26.5613 22.7153C26.098 22.9901 25.2175 23.5058 24.1914 24.0991L24.5146 25.027C39.1966 22.866 60.0952 26.0237 77.2172 34.7784Z" fill="black" stroke="black"/>
</svg>
