<svg width="15" height="28" viewBox="0 0 15 28" fill="none" xmlns="http://www.w3.org/2000/svg">
<path fill-rule="evenodd" clip-rule="evenodd" d="M9.06217 0.0621463C6.95167 0.62141 4.83745 1.10901 3.14198 2.55881C1.36834 4.07655 0.466657 6.28105 0.145615 8.73771C-0.263829 11.8718 0.28519 15.4275 0.625774 17.9614C0.802579 19.2735 0.877961 21.102 1.26042 22.7221C1.58984 24.1152 2.15094 25.363 3.00612 26.2368C4.34984 27.6094 6.41194 27.748 8.52709 26.8919C10.9707 25.9027 13.4042 23.6201 14.0658 22.2894C14.5236 21.37 14.1486 20.2515 13.2283 19.7946C12.3089 19.3368 11.1913 19.7118 10.7335 20.6312C10.3138 21.4752 8.68065 22.8142 7.13035 23.4424C6.78418 23.5819 6.44173 23.6861 6.11789 23.7122C5.94946 23.7262 5.78104 23.7504 5.66659 23.634C5.10546 23.0599 4.90819 22.1265 4.74535 21.1839C4.51736 19.87 4.45405 18.4974 4.31539 17.4645C4.01017 15.1986 3.47049 12.0226 3.8362 9.21975C4.03255 7.7169 4.47641 6.31643 5.56236 5.38774C6.82234 4.31015 8.4452 4.07657 10.015 3.66061C11.008 3.39819 11.6007 2.3783 11.3374 1.38539C11.075 0.392491 10.0551 -0.20027 9.06217 0.0621463Z" fill="black"/>
</svg>
