<svg width="43" height="43" viewBox="0 0 43 43" fill="none" xmlns="http://www.w3.org/2000/svg">
<path d="M41.5 21.5C41.5034 24.1343 40.9847 26.7432 39.9739 29.1759C38.9631 31.6085 37.4803 33.8168 35.611 35.673C33.7571 37.5237 31.5566 38.9909 29.1354 39.9907C26.7141 40.9905 24.1196 41.5034 21.5 41.5C10.454 41.5 1.50002 32.546 1.50002 21.5C1.49303 16.3718 3.46289 11.4382 7.00002 7.72502C8.86636 5.75562 11.1149 4.18776 13.6081 3.1174C16.1014 2.04704 18.7868 1.49668 21.5 1.50002C24.1196 1.49662 26.7141 2.0095 29.1354 3.00933C31.5566 4.00916 33.7571 5.47634 35.611 7.32702C37.4803 9.18324 38.9631 11.3915 39.9739 13.8242C40.9847 16.2568 41.5034 18.8657 41.5 21.5Z" stroke="black" stroke-width="3" stroke-linecap="round" stroke-linejoin="round"/>
</svg>
