<svg width="29" height="16" viewBox="0 0 29 16" fill="none" xmlns="http://www.w3.org/2000/svg">
<path d="M0.03379 5.96237C0.393212 8.17749 4.50591 12.2567 8.16193 13.9924C9.28946 14.5552 11.2345 14.958 12.9539 15.0318C15.6544 15.1299 16.0377 15.04 19.526 13.4334C22.8733 11.8918 23.3906 11.5238 24.9959 9.65905C27.0409 7.24554 28.9943 2.06073 28.3741 0.614952C27.8315 -0.650101 27.0436 -0.0275491 25.4651 3.08009C23.7175 6.48203 22.7436 7.75296 20.7098 9.20903C18.7663 10.5803 15.1314 11.6483 12.8454 11.5325C10.1294 11.3982 5.02312 8.64228 2.24656 5.80898C0.832909 4.38237 -0.203006 4.42661 0.03379 5.96237Z" fill="black"/>
</svg>
