<svg width="32" height="48" viewBox="0 0 32 48" fill="none" xmlns="http://www.w3.org/2000/svg">
<path d="M16.9397 1.11869C16.7737 1.48983 16.7029 4.06674 16.7436 6.82084L16.8321 11.8867L15.1091 12.325C14.1297 12.5232 13.227 12.6922 13.068 12.621C12.9089 12.5499 12.6198 10.0665 12.3377 7.14082C11.9479 2.3219 11.0519 -0.369311 9.97763 0.0409946C9.77114 0.075894 9.30969 3.24162 8.92364 6.95007L8.25331 13.7126L3.82657 15.3594C-0.16908 16.7537 -0.523433 16.9769 0.465825 17.6102C1.03092 18.0538 2.86423 18.3648 4.50358 18.3981C6.16664 18.3783 7.54648 18.4228 7.65252 18.4703C8.02366 18.6362 7.85982 25.6889 7.48042 26.5372C7.26701 27.0144 5.53708 27.895 3.61319 28.4979C1.63627 29.0771 0.189559 29.8935 0.306789 30.2004C0.424019 30.5073 2.00342 30.9592 3.77811 31.1166C5.60582 31.2978 7.23265 31.6436 7.45592 31.998C7.7029 32.2993 8.07298 35.4552 8.27707 38.9822C8.81927 46.7324 9.63988 48.8809 11.3432 46.7795C11.7868 46.2144 12.4142 42.6776 12.736 38.6859L13.3659 31.5871L15.0359 31.1252L16.6821 30.7162L17.0274 36.9149C17.2526 41.533 17.6141 43.2853 18.3564 43.6173C19.7879 44.2575 20.9149 41.4531 21.9271 34.7798C22.3467 31.8498 22.7887 29.4389 22.9185 29.4333C24.735 29.355 30.7731 27.0927 31.1051 26.3504C31.7216 24.9719 30.7198 24.6511 26.4436 24.9655L22.7101 25.2045L22.4836 21.1585C22.3592 18.876 22.2167 16.7763 22.2055 16.5168C22.218 16.2042 23.9772 15.4004 26.0783 14.6858C28.1794 13.9713 30.0391 13.0851 30.1813 12.767C30.7979 11.3885 29.0301 10.7888 25.5087 11.1226C23.515 11.3126 21.6985 11.3909 21.4864 11.2961C21.2213 11.1775 20.536 9.15316 19.887 6.76328C18.7299 2.23743 17.4851 -0.100761 16.9397 1.11869ZM16.8329 19.1403C16.9781 20.096 17.009 22.0186 16.8878 23.4277C16.729 25.7744 16.5574 26.0158 15.4483 26.2196C14.8051 26.3774 14.0266 26.4109 13.8145 26.3161C13.5494 26.1975 13.3065 24.1801 13.2057 21.8446C13.0797 17.7162 13.0741 17.5865 14.4135 17.2948C16.2955 16.9276 16.4839 17.0755 16.8329 19.1403Z" fill="black"/>
</svg>
