<svg width="35" height="37" viewBox="0 0 35 37" fill="none" xmlns="http://www.w3.org/2000/svg">
<path d="M33.7444 0.562538C34.061 0.714267 34.1982 1.09723 34.0473 1.41872L34.0467 1.41944C29.9619 9.96273 25.8522 18.0332 23.0908 27.2042L23.0915 27.2035C22.9643 27.6255 22.6611 29.1028 22.3164 30.6643C21.9643 32.2599 21.5632 33.9734 21.2281 34.9529L21.2268 34.9544C21.0243 35.5522 20.8063 35.8921 20.7054 35.9982C20.5674 36.1398 20.4306 36.1977 20.316 36.2237L20.3105 36.2253C20.234 36.2437 20.1262 36.2577 20.0123 36.2335C19.9089 36.2116 19.7719 36.153 19.6299 35.9785L19.6284 35.9758C19.626 35.9723 19.6124 35.9538 19.587 35.9111C19.5599 35.8656 19.5277 35.8063 19.4906 35.7361C19.4164 35.5958 19.3312 35.4234 19.2479 35.25C19.0919 34.9253 18.92 34.5491 18.8864 34.4819C17.562 31.7489 16.3758 28.8578 14.845 26.1555L14.8443 26.1548C11.4485 20.1635 6.65441 14.626 0.795472 10.8953C0.536137 10.7287 0.435983 10.4056 0.542424 10.1262L0.600488 10.0098C0.790794 9.71357 1.18647 9.62403 1.48669 9.81406C7.49028 13.642 12.4463 19.3258 15.9599 25.5239C17.2785 27.8491 18.3241 30.2783 19.4746 32.7325L20.0773 34.0185L20.4127 32.639C20.9535 30.4192 21.7048 27.3634 21.866 26.8348L21.8666 26.8327C24.6324 17.6424 28.7397 9.54857 32.8923 0.86533C33.0455 0.545525 33.4279 0.411035 33.7444 0.562538Z" fill="black" stroke="black"/>
</svg>
