<svg width="84" height="136" viewBox="0 0 84 136" fill="none" xmlns="http://www.w3.org/2000/svg">
<g filter="url(#filter0_d_1_917)">
<path d="M-2.4321 22.5902V45.1804L-14.2183 39.2873C-20.7007 36.1443 -26.7902 33.3942 -27.9689 33.3942C-32.4869 33.3942 -29.3439 39.4837 -20.8971 46.9483C-14.8076 52.2521 -12.6468 55.1987 -14.4147 55.788C-15.9862 56.3773 -27.576 59.5203 -40.5408 62.6633C-64.7025 68.5564 -69.6134 71.11 -65.8811 74.8423C-64.5061 76.2174 -55.0771 75.6281 -34.0584 72.4851C-17.5577 70.1279 -3.61071 68.7528 -3.0214 69.3421C-2.4321 70.1279 -5.77152 77.0031 -10.2896 84.8606C-15.004 92.7181 -18.9328 99.7898 -19.3256 100.379C-19.7185 101.165 -18.7363 102.736 -17.3613 103.915C-15.004 105.879 -13.0397 104.897 -6.7537 99.3969C-2.4321 95.4682 1.88951 92.3252 2.87169 92.3252C3.85387 92.3252 5.81824 98.2183 7.38973 105.486C10.7292 122.38 13.0864 127.684 17.408 127.684C22.7118 127.684 23.694 121.594 22.1225 99.004C21.3367 87.6107 21.3367 78.5746 22.3189 78.5746C23.3011 78.5746 31.1586 81.7176 39.8018 85.4499C56.8918 92.9145 62.392 93.8967 62.392 89.5751C62.392 85.6463 59.249 82.8962 44.1234 72.4851C36.8552 67.7706 30.9621 63.2526 30.9621 62.6633C30.9621 62.074 40.9804 58.7345 53.1595 55.1987C74.9639 48.9127 84 44.7875 84 41.2517C84 38.3051 71.6245 38.8944 51.9808 42.4303C42.5519 44.1982 34.1051 45.1804 33.5158 44.3947C32.9265 43.8054 34.3015 38.698 36.6588 33.1978C45.4984 11.7862 39.9982 9.82182 26.2476 29.6619C21.1403 37.3229 16.0329 42.8232 15.2472 41.841C14.4614 41.0552 12.3007 33.1978 10.3363 24.5546C6.40755 6.08952 3.85387 -1.52588e-05 0.121582 -1.52588e-05C-1.84279 -1.52588e-05 -2.4321 5.10734 -2.4321 22.5902Z" fill="#F3ABCB"/>
<path d="M17.4082 126.684C18.519 126.684 19.2722 126.378 19.8525 125.719C20.4813 125.005 21.0114 123.759 21.3564 121.654C22.0465 117.442 21.9122 110.39 21.125 99.0734V99.0724C20.7312 93.3622 20.5328 88.2275 20.5576 84.5099C20.57 82.6574 20.6376 81.1263 20.7705 80.0432C20.8359 79.5107 20.9239 79.0299 21.0508 78.6603C21.1124 78.4808 21.2053 78.2587 21.3574 78.0637C21.5105 77.8673 21.8281 77.5744 22.3193 77.5744C22.6045 77.5745 22.9671 77.6687 23.2725 77.756C23.6245 77.8568 24.0663 78.0006 24.5791 78.1799C25.6072 78.5393 26.966 79.0547 28.5547 79.6828C31.7348 80.9401 35.8706 82.6627 40.1982 84.5314L40.2021 84.5334C48.7631 88.2726 54.3061 90.3342 57.6846 90.9484C59.4016 91.2606 60.3393 91.1531 60.8115 90.9123C61.1419 90.7438 61.3915 90.432 61.3916 89.5754C61.3916 88.7472 61.2316 88.0052 60.7871 87.1906C60.3292 86.3515 59.5496 85.3987 58.25 84.1945C55.64 81.7761 51.1453 78.5326 43.5791 73.3244C39.9282 70.9563 36.6186 68.6346 34.2158 66.8264C33.0164 65.9237 32.0316 65.1398 31.3398 64.5373C30.9968 64.2385 30.707 63.9689 30.4961 63.7414C30.3924 63.6296 30.2871 63.5054 30.2012 63.3781C30.1581 63.3143 30.1069 63.2302 30.0635 63.131C30.0244 63.0417 29.9619 62.8751 29.9619 62.6633C29.9619 62.3033 30.1418 62.0588 30.2158 61.968C30.306 61.8573 30.405 61.7764 30.4746 61.7238C30.6175 61.6158 30.7889 61.5171 30.9551 61.4308C31.2973 61.2531 31.773 61.0458 32.3467 60.8166C33.5024 60.3549 35.1564 59.7653 37.1758 59.0881C41.2196 57.7319 46.7828 56.0089 52.8809 54.2385L52.8828 54.2375C63.7785 51.0964 71.4295 48.5105 76.3438 46.2834C78.8059 45.1675 80.5234 44.1666 81.6104 43.2678C82.7143 42.3549 82.9963 41.6915 82.999 41.258C82.9893 41.2436 82.9556 41.1984 82.8633 41.1349C82.6458 40.9855 82.2355 40.8156 81.5566 40.675C80.2116 40.3964 78.1489 40.2998 75.3965 40.4094C69.9167 40.6276 61.9668 41.6489 52.1641 43.4133H52.165C47.4341 44.3003 42.9385 44.9926 39.542 45.3644C37.8479 45.5499 36.4042 45.6585 35.333 45.6682C34.8017 45.6729 34.3268 45.6537 33.9463 45.5978C33.7574 45.5701 33.5572 45.5286 33.3711 45.4601C33.2225 45.4054 32.9729 45.2941 32.7715 45.0627C32.6028 44.8786 32.5175 44.6745 32.4717 44.5246C32.4206 44.3574 32.398 44.1885 32.3877 44.0383C32.3672 43.7389 32.3893 43.397 32.4346 43.0432C32.5261 42.328 32.7304 41.4103 33.0186 40.3703C33.5973 38.2819 34.5463 35.5875 35.7393 32.8039C37.9358 27.482 39.2163 23.4261 39.71 20.6476C39.9586 19.248 39.9934 18.2471 39.8877 17.5988C39.8356 17.2795 39.7576 17.0964 39.6963 17.0012C39.6443 16.9206 39.6109 16.91 39.5977 16.9055C39.5254 16.8806 39.1859 16.8437 38.4102 17.2853C37.6788 17.7017 36.7462 18.4395 35.6191 19.5471C33.3743 21.7532 30.4963 25.2877 27.0791 30.217H27.0801C24.506 34.0781 21.9215 37.4103 19.8662 39.6662C18.845 40.7871 17.9222 41.6779 17.1758 42.2326C16.8129 42.5022 16.4222 42.7455 16.0381 42.8674C15.6939 42.9765 15.0276 43.0696 14.54 42.548C14.2965 42.3045 14.1133 41.9353 13.9795 41.6379C13.8247 41.2939 13.6568 40.8585 13.4805 40.3547C13.1268 39.3442 12.7159 37.9952 12.2715 36.4152C11.3817 33.2515 10.346 29.1091 9.36133 24.7766L9.3584 24.7629C7.39336 15.5272 5.78855 9.47223 4.23242 5.73749C3.45365 3.86844 2.7189 2.66178 2.01855 1.9328C1.34682 1.2336 0.736338 1.00031 0.12207 1.00018C0.118216 1.00018 0.122067 0.992383 0.0957031 1.01483C0.0468666 1.0565 -0.0606559 1.17818 -0.191406 1.47479C-0.458589 2.08107 -0.704106 3.13921 -0.898438 4.85175C-1.28395 8.24904 -1.43164 13.8412 -1.43164 22.59V46.798L-2.87891 46.0744L-14.665 40.1818C-17.897 38.6149 -21.0221 37.1507 -23.4814 36.0793C-24.7139 35.5424 -25.7683 35.1087 -26.5791 34.8117C-26.985 34.663 -27.3178 34.5531 -27.5742 34.4816C-27.7021 34.446 -27.8023 34.4225 -27.877 34.4084C-27.957 34.3933 -27.982 34.3937 -27.9688 34.3937C-28.4337 34.3937 -28.6949 34.4746 -28.8271 34.5471C-28.9313 34.6042 -28.9736 34.663 -29.001 34.7531C-29.0872 35.0376 -29.0275 35.7175 -28.4072 36.9103C-27.2162 39.2008 -24.4316 42.4916 -20.2412 46.1955L-20.2402 46.1945C-17.1902 48.851 -15.0544 50.9755 -13.9033 52.5451C-13.3476 53.3029 -12.9112 54.0731 -12.8311 54.7932C-12.7874 55.1864 -12.8443 55.622 -13.1035 56.0109C-13.3512 56.3824 -13.7102 56.6008 -14.0645 56.7248H-14.0635C-14.9081 57.0415 -18.2606 57.9894 -22.9482 59.2346C-27.6694 60.4886 -33.8152 62.0617 -40.3047 63.6349H-40.3037C-52.4112 66.588 -59.5672 68.6766 -63.2334 70.4621C-64.1399 70.9036 -64.7917 71.3075 -65.2393 71.675C-65.6898 72.045 -65.8814 72.3359 -65.9551 72.5373C-66.0572 72.8173 -66.0368 73.2719 -65.1738 74.1349C-65.1939 74.1149 -65.1081 74.2002 -64.7344 74.2951C-64.3873 74.3832 -63.8922 74.4558 -63.2217 74.4982C-61.8823 74.583 -59.9693 74.5435 -57.4072 74.3605C-52.2906 73.9951 -44.7094 73.0669 -34.2061 71.4963L-34.2002 71.4953C-25.9394 70.3152 -18.3127 69.3801 -12.6729 68.8137C-9.85515 68.5307 -7.52212 68.3382 -5.84961 68.2541C-5.01646 68.2122 -4.32739 68.1967 -3.81738 68.2121C-3.56545 68.2197 -3.32956 68.2356 -3.13086 68.2668C-3.03256 68.2822 -2.91708 68.3048 -2.80176 68.343C-2.71078 68.373 -2.4997 68.4498 -2.31445 68.6349L-2.26367 68.6857L-2.22168 68.7424C-2.01987 69.0115 -1.97203 69.3056 -1.95898 69.4885C-1.94481 69.6872 -1.96288 69.8872 -1.99121 70.0676C-2.04814 70.43 -2.16924 70.8567 -2.32715 71.3176C-2.64593 72.2479 -3.16824 73.4655 -3.83691 74.8771C-5.17816 77.7087 -7.15622 81.4176 -9.42285 85.3596L-9.42773 85.3674L-9.43164 85.3752L-11.1543 88.2678C-12.8294 91.1021 -14.3462 93.727 -15.5605 95.843C-17.0078 98.3646 -18.0622 100.223 -18.4111 100.796C-18.4103 100.815 -18.409 100.846 -18.3994 100.891C-18.3696 101.032 -18.2916 101.239 -18.1406 101.5C-17.8413 102.019 -17.3355 102.618 -16.7207 103.147C-16.2124 103.57 -15.8103 103.763 -15.4355 103.823C-15.0652 103.883 -14.5999 103.832 -13.9316 103.539C-12.5302 102.926 -10.589 101.423 -7.42773 98.6574H-7.42676C-5.24415 96.6732 -3.0554 94.882 -1.2793 93.5812C-0.393097 92.9322 0.405125 92.3942 1.05762 92.0139C1.38278 91.8243 1.68907 91.6633 1.96289 91.5471C2.20554 91.4441 2.53704 91.3254 2.87207 91.3254C3.46818 91.3256 3.86614 91.7361 4.04199 91.9406C4.2653 92.2003 4.47 92.5362 4.6582 92.8976C5.03958 93.63 5.44517 94.6497 5.85645 95.8586C6.6828 98.2876 7.57627 101.618 8.36719 105.276L8.36914 105.283L8.37109 105.292C10.0423 113.746 11.4484 119.19 12.9424 122.51C13.6867 124.164 14.4174 125.207 15.1426 125.834C15.8373 126.434 16.5618 126.684 17.4082 126.684Z" stroke="black" stroke-width="2"/>
</g>
<defs>
<filter id="filter0_d_1_917" x="-67" y="0" width="151" height="135.448" filterUnits="userSpaceOnUse" color-interpolation-filters="sRGB">
<feFlood flood-opacity="0" result="BackgroundImageFix"/>
<feColorMatrix in="SourceAlpha" type="matrix" values="0 0 0 0 0 0 0 0 0 0 0 0 0 0 0 0 0 0 127 0" result="hardAlpha"/>
<feOffset dy="7.76457"/>
<feComposite in2="hardAlpha" operator="out"/>
<feColorMatrix type="matrix" values="0 0 0 0 0.745098 0 0 0 0 0.74902 0 0 0 0 0.705882 0 0 0 1 0"/>
<feBlend mode="normal" in2="BackgroundImageFix" result="effect1_dropShadow_1_917"/>
<feBlend mode="normal" in="SourceGraphic" in2="effect1_dropShadow_1_917" result="shape"/>
</filter>
</defs>
</svg>
