<svg width="143" height="133" viewBox="0 0 143 133" fill="none" xmlns="http://www.w3.org/2000/svg">
<g filter="url(#filter0_d_1_923)">
<path d="M114.983 5.42483C112.919 6.05408 112.958 6.02672 95.5307 21.4861C88.4705 27.709 82.4971 32.8217 82.2978 32.7866C82.0984 32.7514 81.6217 28.6585 81.2976 23.7018C80.6336 14.2652 79.6996 8.68689 78.5895 7.01765C77.2762 5.14121 75.6578 4.99257 73.5077 6.49744C71.2404 8.08441 69.8174 10.1288 63.0853 21.4804C57.5651 30.8189 56.1382 32.6912 54.7817 32.4175C53.0266 32.0734 50.0285 29.4542 35.3076 15.4119C27.2984 7.79652 19.9458 1.11937 18.9411 0.599407C15.6693 -1.24587 13.914 1.3223 15.1764 6.20482C15.5516 7.57302 18.1116 14.2264 20.8593 20.9815C28.4966 39.6322 32.3425 51.6177 30.9742 52.5753C30.6615 52.7942 28.0229 52.6025 25.0481 52.1802C14.3568 50.6354 7.34005 50.0135 6.09302 50.4786C5.13527 50.8577 4.82643 51.2486 4.74428 52.2963C4.6504 53.4103 4.86929 53.7231 6.3664 54.9467C7.33581 55.666 13.0468 58.8327 19.0471 61.9134C25.0473 64.9941 30.3557 67.9184 30.8561 68.3836C32.3688 69.7128 32.0717 70.6197 29.6792 72.5272C28.483 73.481 22.2907 78.281 15.9029 83.2178C0.969572 94.8347 -1.12582 97.0002 0.433773 99.2285C2.23963 101.809 7.63421 100.945 29.0916 94.4884C38.2429 91.7526 46.1355 89.5483 46.6006 89.6304C47.3043 89.7204 47.3433 90.2755 46.8233 92.445C45.4548 98.0623 42.9404 112.694 43.1045 114.093C43.5226 117.354 45.5475 117.917 48.1667 115.501C48.9564 114.715 53.0534 109.751 57.3263 104.372C61.5602 99.0209 65.1138 94.6117 65.2467 94.6351C65.3796 94.6586 66.4623 97.4537 67.6231 100.776C70.4645 108.747 75.788 121.096 78.2505 125.197C80.0133 128.215 80.2986 128.54 81.5065 128.684C84.2937 129.005 84.6339 127.66 87.5512 106.864C88.611 99.3078 89.7528 93.0338 90.0421 92.9478C90.3314 92.8619 93.3101 94.0387 96.6014 95.579C104.869 99.4026 110.244 101.174 112.472 100.779C114.239 100.474 114.317 100.42 114.552 99.0904C114.919 97.2024 112.007 91.9601 107.329 85.8577C105.323 83.2425 103.682 80.8969 103.756 80.6702C103.764 80.4317 107.399 80.7994 111.758 81.5346C124.419 83.5641 135.896 84.7336 139.473 84.2686C142.272 83.9404 143.41 82.154 142.069 80.2385C141.494 79.4175 132.246 74.3586 119.053 67.5756C113.776 64.8624 109.46 62.5245 109.429 62.3134C109.398 62.1023 113.475 59.1903 118.444 55.8874C128.745 48.9689 130.324 47.3976 129.261 45.4625C128.487 44.0239 127.865 44.0512 115.997 45.4852C105.767 46.7629 101.975 47.0871 101.674 46.6571C101.565 46.5007 102.19 44.898 103.074 42.9983C103.946 41.165 105.916 36.9902 107.484 33.7379C112.336 23.5277 116.883 12.7154 117.559 9.85397C118.095 7.79001 118.06 6.82446 117.485 6.00352C116.828 5.0653 116.43 4.99491 114.983 5.42483ZM113.783 12.6136C111.793 17.6757 105.565 31.4119 102.007 38.5614C99.0045 44.507 98.0896 47.3605 98.8831 48.4942C99.8134 49.8234 104.434 49.851 113.949 48.5498C119.242 47.8738 124.073 47.2878 124.683 47.3269C125.637 47.3582 125.653 47.4638 124.456 48.4175C123.741 48.9765 119.195 52.2168 114.374 55.6487L105.579 61.805L106.2 62.9426C106.669 63.7792 111.176 66.3907 122.497 72.3293C131.124 76.833 138.32 80.7073 138.484 80.9419C138.648 81.1765 138.668 81.454 138.512 81.5635C137.769 82.0833 119.904 80.0261 110.695 78.4346C105.113 77.4492 100.359 76.8156 100.046 77.0345C98.7172 77.9648 99.1746 78.8678 105.741 88.25C109.326 93.3711 112.152 97.7416 112.038 97.9957C111.6 99.1176 105.69 97.0806 96.5351 92.655C91.0469 89.9731 89.1198 89.6329 87.7789 91.2121C87.1846 91.8609 86.1093 97.5642 84.4747 108.377C83.1803 117.262 81.9446 124.65 81.7491 124.787C80.85 125.416 78.1335 119.455 72.3528 104.455C66.7832 90.0069 66.7011 89.8896 64.121 91.6954C63.4174 92.1879 60.6965 95.3737 58.1124 98.7549C51.5954 107.335 46.4507 113.382 46.1224 112.913C45.712 112.327 46.8186 105.669 48.7346 97.3393C50.7365 88.7159 50.7757 87.5237 49.4232 86.8395C47.9104 86.0928 45.3812 86.6399 31.5779 90.8844C12.7788 96.6453 4.15525 98.7205 3.36177 97.5869C2.84191 96.8441 6.10225 94.0962 22.0794 81.8069C29.0926 76.4324 33.9127 72.418 34.3467 71.7066C36.1059 68.7279 33.3815 65.9172 24.2892 61.3313C14.5402 56.3896 9.91591 53.8602 9.9863 53.4615C10.0293 53.0237 12.4569 53.2466 22.1122 54.6427C30.505 55.8159 32.8465 55.7496 33.5815 54.3033C35.2274 50.9963 32.5463 41.9231 22.7672 17.5494C18.8821 7.92113 17.647 4.2426 18.1552 3.88691C18.5852 3.58593 18.6673 3.70321 33.3608 17.7064C47.7845 31.4907 50.2432 33.6721 52.8427 35.056C56.7282 37.1124 58.2841 35.674 66.0756 22.5907C72.0415 12.4744 74.3871 9.08531 75.4934 8.83519C76.717 8.50299 77.4282 12.4317 78.2992 24.5772C79.0453 35.296 79.4243 37.4187 80.4681 37.3288C80.7065 37.3366 81.7464 36.4923 82.7823 35.476C86.3711 32.0323 112.841 9.60352 114.526 8.59898C115.401 8.10258 115.319 8.56775 113.783 12.6136Z" fill="black"/>
</g>
<defs>
<filter id="filter0_d_1_923" x="0" y="0" width="142.63" height="132.721" filterUnits="userSpaceOnUse" color-interpolation-filters="sRGB">
<feFlood flood-opacity="0" result="BackgroundImageFix"/>
<feColorMatrix in="SourceAlpha" type="matrix" values="0 0 0 0 0 0 0 0 0 0 0 0 0 0 0 0 0 0 127 0" result="hardAlpha"/>
<feOffset dy="4"/>
<feComposite in2="hardAlpha" operator="out"/>
<feColorMatrix type="matrix" values="0 0 0 0 0 0 0 0 0 0 0 0 0 0 0 0 0 0 0.25 0"/>
<feBlend mode="normal" in2="BackgroundImageFix" result="effect1_dropShadow_1_923"/>
<feBlend mode="normal" in="SourceGraphic" in2="effect1_dropShadow_1_923" result="shape"/>
</filter>
</defs>
</svg>
