<svg width="58" height="31" viewBox="0 0 58 31" fill="none" xmlns="http://www.w3.org/2000/svg">
<path d="M0.0678987 11.9969C0.791083 16.4539 9.06615 24.6615 16.4224 28.1539C18.691 29.2864 22.6045 30.0968 26.0642 30.2453C31.4977 30.4427 32.269 30.2617 39.2877 27.0292C46.0228 23.9274 47.0636 23.1868 50.2935 19.4349C54.4083 14.5787 58.3387 4.14645 57.0909 1.23744C55.999 -1.30795 54.4138 -0.055322 51.2377 6.19748C47.7214 13.0425 45.7618 15.5997 41.6697 18.5294C37.7591 21.2884 30.4455 23.4374 25.8458 23.2043C20.3811 22.9341 10.1068 17.389 4.52016 11.6882C1.67579 8.81777 -0.408554 8.90679 0.0678987 11.9969Z" fill="black"/>
</svg>
