<svg width="569" height="8" viewBox="0 0 569 8" fill="none" xmlns="http://www.w3.org/2000/svg">
<path d="M3.14062 4.09122C33.7299 4.09122 60.4184 4.09122 76.1542 4.09122M76.1542 4.09122C91.89 4.09122 161.756 4.39641 191.34 4.39641M76.1542 4.09122C76.1542 4.09122 110.278 3.14116 130.285 3.14116C150.292 3.14116 191.34 4.39641 191.34 4.39641M565.312 4.39641C534.004 4.39641 548.48 4.09122 517.383 4.09122C499.657 4.09122 477.973 4.59986 446.887 4.39641M274.61 3.14116C296.124 3.17055 408.57 4.14564 446.887 4.39641M274.61 3.14116C252.361 3.11076 220.923 4.39641 191.34 4.39641M274.61 3.14116C274.61 3.14116 328.555 3.14116 358.767 3.14116M446.887 4.39641C446.887 4.39641 388.98 3.14116 358.767 3.14116M191.34 4.39641C209.472 4.39641 251.512 4.39641 274.61 4.39641C297.709 4.39641 340.339 3.55957 358.767 3.14116" stroke="black" stroke-width="6.28125" stroke-miterlimit="10" stroke-linecap="round" stroke-linejoin="round"/>
</svg>
