<svg width="113" height="105" viewBox="0 0 113 105" fill="none" xmlns="http://www.w3.org/2000/svg">
<g filter="url(#filter0_d_1_1121)">
<path d="M90.4159 4.26578C88.7929 4.76058 88.8237 4.73907 75.1196 16.8955C69.5679 21.7888 64.8708 25.8091 64.714 25.7814C64.5573 25.7538 64.1824 22.5354 63.9275 18.6377C63.4054 11.2173 62.671 6.83087 61.7981 5.51828C60.7654 4.04276 59.4928 3.92588 57.8021 5.10922C56.0192 6.35711 54.9002 7.96469 49.6064 16.8909C45.2657 24.2342 44.1437 25.7065 43.077 25.4912C41.6969 25.2207 39.3393 23.161 27.7638 12.119C21.4657 6.13074 15.6841 0.880224 14.8941 0.471352C12.3214 -0.979664 10.9411 1.03979 11.9337 4.87912C12.2287 5.95499 14.2418 11.1868 16.4025 16.4986C22.408 31.1644 25.4321 40.5891 24.3562 41.3422C24.1103 41.5143 22.0354 41.3635 19.6962 41.0314C11.2893 39.8168 5.77168 39.3277 4.79109 39.6934C4.03798 39.9916 3.79512 40.2989 3.73052 41.1227C3.6567 41.9988 3.82883 42.2447 5.00606 43.2069C5.76835 43.7725 10.2591 46.2626 14.9774 48.6851C19.6957 51.1076 23.8699 53.4071 24.2633 53.7729C25.4528 54.8181 25.2192 55.5312 23.3379 57.0312C22.3972 57.7811 17.528 61.5556 12.505 65.4376C0.762314 74.5725 -0.885381 76.2753 0.340994 78.0275C1.76101 80.0563 6.003 79.3772 22.8758 74.3002C30.0719 72.1489 36.2781 70.4156 36.6439 70.4801C37.1972 70.5509 37.2279 70.9874 36.819 72.6933C35.7429 77.1104 33.7657 88.6158 33.8948 89.7163C34.2235 92.2799 35.8158 92.7226 37.8754 90.8231C38.4963 90.2053 41.718 86.3017 45.078 82.0722C48.4072 77.8643 51.2016 74.3971 51.3061 74.4155C51.4106 74.434 52.2619 76.6319 53.1747 79.2447C55.4091 85.5125 59.5951 95.2231 61.5315 98.4477C62.9177 100.821 63.142 101.076 64.0919 101.19C66.2835 101.442 66.551 100.385 68.8451 84.0316C69.6784 78.0899 70.5763 73.1564 70.8037 73.0887C71.0312 73.0211 73.3735 73.9465 75.9616 75.1578C82.4627 78.1644 86.6892 79.5571 88.4413 79.2467C89.8307 79.007 89.8922 78.964 90.0767 77.9189C90.3657 76.4342 88.0759 72.312 84.3967 67.5135C82.82 65.457 81.529 63.6126 81.5874 63.4343C81.5936 63.2468 84.4523 63.5359 87.8796 64.114C97.8358 65.7099 106.861 66.6295 109.673 66.2639C111.874 66.0058 112.769 64.6011 111.715 63.0948C111.263 62.4493 103.99 58.4713 93.6161 53.1375C89.4665 51.004 86.0731 49.1656 86.0485 48.9996C86.0239 48.8337 89.2301 46.5438 93.1371 43.9466C101.237 38.5063 102.479 37.2707 101.643 35.7491C101.034 34.6178 100.546 34.6393 91.2133 35.7669C83.169 36.7716 80.1873 37.0266 79.9506 36.6884C79.8645 36.5655 80.3564 35.3052 81.0512 33.8113C81.7368 32.3697 83.2862 29.0869 84.519 26.5295C88.3341 18.5008 91.9095 9.99864 92.4414 7.7486C92.8626 6.12562 92.835 5.36637 92.3832 4.72083C91.8668 3.98307 91.5533 3.92772 90.4159 4.26578ZM89.4719 9.91858C87.9071 13.8992 83.0098 24.7005 80.2123 30.3224C77.8513 34.9977 77.1318 37.2416 77.7558 38.133C78.4873 39.1782 82.1206 39.1999 89.6025 38.1767C93.7646 37.6452 97.5639 37.1843 98.0434 37.2151C98.7934 37.2397 98.8057 37.3227 97.8651 38.0727C97.3025 38.5122 93.7275 41.0603 89.9372 43.7589L83.0207 48.5999L83.5094 49.4944C83.8782 50.1522 87.4223 52.2058 96.324 56.8755C103.108 60.417 108.767 63.4635 108.896 63.648C109.025 63.8324 109.04 64.0507 108.917 64.1367C108.333 64.5455 94.2857 62.9279 87.0437 61.6764C82.6542 60.9015 78.9164 60.4033 78.6705 60.5754C77.6253 61.307 77.985 62.017 83.1486 69.3947C85.9672 73.4216 88.1894 76.8583 88.1002 77.0581C87.7559 77.9403 83.1083 76.3385 75.9095 72.8585C71.5939 70.7496 70.0785 70.4821 69.024 71.7238C68.5568 72.2341 67.7112 76.7188 66.4258 85.2211C65.408 92.2079 64.4363 98.0175 64.2826 98.1251C63.5756 98.6199 61.4395 93.9322 56.8939 82.1374C52.5143 70.7761 52.4498 70.6839 50.4209 72.1039C49.8676 72.4912 47.728 74.9963 45.6961 77.6551C40.5715 84.4019 36.526 89.157 36.2678 88.7881C35.9451 88.327 36.8153 83.0923 38.3219 76.5419C39.8961 69.761 39.9269 68.8235 38.8634 68.2855C37.6738 67.6983 35.685 68.1286 24.8309 71.4662C10.0484 75.9962 3.26735 77.628 2.6434 76.7366C2.23461 76.1525 4.79835 73.9917 17.3618 64.3282C22.8766 60.1019 26.6669 56.9453 27.0081 56.3859C28.3915 54.0436 26.2491 51.8334 19.0995 48.2273C11.4335 44.3415 7.79719 42.3525 7.85254 42.039C7.88637 41.6947 9.79524 41.87 17.3877 42.9678C23.9872 43.8904 25.8285 43.8382 26.4064 42.7009C27.7007 40.1005 25.5924 32.9659 17.9027 13.7999C14.8477 6.22872 13.8765 3.33615 14.2761 3.05645C14.6142 2.81978 14.6788 2.912 26.2329 13.9233C37.5748 24.7624 39.5082 26.4778 41.5523 27.566C44.6076 29.1831 45.8311 28.0519 51.9579 17.764C56.6491 9.80911 58.4936 7.14417 59.3635 6.94749C60.3256 6.68626 60.8849 9.77555 61.5698 19.3261C62.1565 27.7547 62.4545 29.4238 63.2753 29.3532C63.4628 29.3594 64.2804 28.6954 65.0951 27.8963C67.917 25.1884 88.7313 7.55165 90.0562 6.76175C90.7447 6.3714 90.6802 6.73719 89.4719 9.91858Z" fill="black"/>
</g>
<defs>
<filter id="filter0_d_1_1121" x="0" y="0" width="112.156" height="104.364" filterUnits="userSpaceOnUse" color-interpolation-filters="sRGB">
<feFlood flood-opacity="0" result="BackgroundImageFix"/>
<feColorMatrix in="SourceAlpha" type="matrix" values="0 0 0 0 0 0 0 0 0 0 0 0 0 0 0 0 0 0 127 0" result="hardAlpha"/>
<feOffset dy="3.14537"/>
<feComposite in2="hardAlpha" operator="out"/>
<feColorMatrix type="matrix" values="0 0 0 0 0 0 0 0 0 0 0 0 0 0 0 0 0 0 0.25 0"/>
<feBlend mode="normal" in2="BackgroundImageFix" result="effect1_dropShadow_1_1121"/>
<feBlend mode="normal" in="SourceGraphic" in2="effect1_dropShadow_1_1121" result="shape"/>
</filter>
</defs>
</svg>
