<svg width="151" height="136" viewBox="0 0 151 136" fill="none" xmlns="http://www.w3.org/2000/svg">
<g filter="url(#filter0_d_1_965)">
<path d="M64.5679 22.5902V45.1804L52.7817 39.2873C46.2993 36.1443 40.2098 33.3942 39.0311 33.3942C34.5131 33.3942 37.6561 39.4837 46.1029 46.9483C52.1924 52.2521 54.3532 55.1987 52.5853 55.788C51.0138 56.3773 39.424 59.5203 26.4592 62.6633C2.29751 68.5564 -2.61341 71.11 1.11889 74.8423C2.49394 76.2174 11.9229 75.6281 32.9416 72.4851C49.4423 70.1279 63.3893 68.7528 63.9786 69.3421C64.5679 70.1279 61.2285 77.0031 56.7104 84.8606C51.996 92.7181 48.0672 99.7898 47.6744 100.379C47.2815 101.165 48.2637 102.736 49.6387 103.915C51.996 105.879 53.9603 104.897 60.2463 99.3969C64.5679 95.4682 68.8895 92.3252 69.8717 92.3252C70.8539 92.3252 72.8182 98.2183 74.3897 105.486C77.7292 122.38 80.0864 127.684 84.408 127.684C89.7118 127.684 90.694 121.594 89.1225 99.004C88.3367 87.6107 88.3367 78.5746 89.3189 78.5746C90.3011 78.5746 98.1586 81.7176 106.802 85.4499C123.892 92.9145 129.392 93.8967 129.392 89.5751C129.392 85.6463 126.249 82.8962 111.123 72.4851C103.855 67.7706 97.9621 63.2526 97.9621 62.6633C97.9621 62.074 107.98 58.7345 120.159 55.1987C141.964 48.9127 151 44.7875 151 41.2517C151 38.3051 138.624 38.8944 118.981 42.4303C109.552 44.1982 101.105 45.1804 100.516 44.3947C99.9265 43.8054 101.302 38.698 103.659 33.1978C112.498 11.7862 106.998 9.82182 93.2476 29.6619C88.1403 37.3229 83.0329 42.8232 82.2472 41.841C81.4614 41.0552 79.3007 33.1978 77.3363 24.5546C73.4075 6.08952 70.8539 -1.52588e-05 67.1216 -1.52588e-05C65.1572 -1.52588e-05 64.5679 5.10734 64.5679 22.5902Z" fill="#FF6258"/>
<path d="M84.4082 126.184C85.4117 126.184 86.0137 125.915 86.4775 125.388C87.014 124.778 87.5238 123.644 87.8633 121.572C88.5422 117.428 88.4139 110.435 87.626 99.1086V99.1076C87.2317 93.3904 87.0327 88.2418 87.0576 84.507C87.07 82.6484 87.1379 81.0938 87.2744 79.9816C87.341 79.4394 87.4331 78.9178 87.5771 78.4982C87.6465 78.2963 87.7618 78.0152 87.9629 77.757C88.1656 77.497 88.613 77.0744 89.3193 77.0744C89.6857 77.0745 90.1149 77.1901 90.4102 77.2746C90.7754 77.3791 91.2272 77.5275 91.7441 77.7082C92.7816 78.0708 94.1478 78.5888 95.7393 79.218C98.9257 80.4777 103.066 82.2025 107.396 84.0724L107.402 84.0754C115.971 87.8181 121.462 89.8541 124.774 90.4562C126.472 90.7648 127.267 90.6286 127.584 90.467C127.688 90.4137 127.892 90.3205 127.892 89.5754C127.892 88.8241 127.749 88.1654 127.348 87.4299C126.926 86.6577 126.19 85.7479 124.91 84.5617C122.33 82.1711 117.863 78.9458 110.278 73.7248C106.63 71.3577 103.322 69.0371 100.915 67.2258C99.7114 66.32 98.7163 65.5279 98.0117 64.9142C97.6636 64.6111 97.3586 64.3279 97.1299 64.0812C97.0182 63.9608 96.8925 63.8151 96.7861 63.6574C96.7328 63.5783 96.6648 63.4668 96.6055 63.3312C96.5525 63.2102 96.4619 62.9717 96.4619 62.6633C96.4619 62.1331 96.7265 61.7773 96.8281 61.6525C96.9538 61.4983 97.0875 61.3889 97.1729 61.3244C97.349 61.1913 97.5498 61.0783 97.7246 60.9875C98.089 60.7982 98.583 60.5837 99.1611 60.3527C100.33 59.8858 101.994 59.2917 104.017 58.6135C108.069 57.2545 113.639 55.5296 119.741 53.758L119.744 53.757C130.637 50.6168 138.259 48.0385 143.138 45.8273C145.585 44.7184 147.255 43.7401 148.292 42.883C149.085 42.2271 149.366 41.7613 149.458 41.4797C149.278 41.3886 148.964 41.2696 148.455 41.1642C147.171 40.8983 145.157 40.8002 142.416 40.9094C137.31 41.1127 130.025 42.0195 121.062 43.5851L119.246 43.9064C114.511 44.794 110.007 45.4881 106.597 45.8615C104.896 46.0477 103.433 46.1583 102.337 46.1682C101.796 46.173 101.292 46.1533 100.874 46.092C100.667 46.0616 100.429 46.0139 100.198 45.9289C100.022 45.8639 99.6868 45.7187 99.4062 45.4025C99.1681 45.1438 99.0519 44.8625 98.9932 44.6701C98.9275 44.455 98.9006 44.246 98.8887 44.0724C98.865 43.7268 98.8913 43.3485 98.9385 42.9797C99.0343 42.2309 99.246 41.288 99.5371 40.2375C100.122 38.1285 101.076 35.4201 102.272 32.6262V32.6252C104.467 27.3096 105.733 23.2879 106.218 20.5598C106.463 19.1818 106.487 18.2464 106.395 17.6799C106.376 17.566 106.353 17.4819 106.335 17.4201C106.207 17.4538 105.989 17.5313 105.657 17.7199C104.979 18.1059 104.082 18.8101 102.97 19.9035C100.755 22.0803 97.8941 25.5914 94.4805 30.5168C91.9011 34.3837 89.3076 37.7287 87.2354 40.0031C86.2069 41.1318 85.2586 42.0506 84.4736 42.634C84.0967 42.9141 83.6531 43.1968 83.1895 43.3439C82.7732 43.4759 81.8283 43.628 81.1436 42.8566C80.8508 42.5438 80.6491 42.1222 80.5234 41.843C80.3603 41.4804 80.1874 41.0299 80.0088 40.5197C79.6501 39.495 79.2357 38.1344 78.79 36.55C77.8973 33.3758 76.86 29.225 75.874 24.8869L75.8711 24.8771L75.8691 24.8664C73.9038 15.6292 72.3067 9.61667 70.7705 5.92987C70.0015 4.08415 69.2958 2.94329 68.6582 2.27948C68.1589 1.75977 67.7357 1.56548 67.3438 1.51581C67.3221 1.55646 67.2962 1.60892 67.2666 1.67596C67.0315 2.20932 66.792 3.20467 66.5986 4.90839C66.2168 8.27327 66.0684 13.8377 66.0684 22.59V47.6076L63.8975 46.5217L52.127 40.6369C48.8937 39.0693 45.7714 37.606 43.3184 36.5373C42.0897 36.002 41.0462 35.5734 40.249 35.2814C39.8495 35.1351 39.5308 35.0296 39.292 34.9631C39.1129 34.9132 39.0262 34.8996 39.0068 34.8957C38.7148 34.8977 38.5491 34.9347 38.4688 34.9621C38.458 35.1455 38.5129 35.6736 39.0361 36.6799C40.185 38.8893 42.9175 42.132 47.0957 45.8244L47.0947 45.8254C50.1434 48.4812 52.3146 50.6328 53.5 52.2492C54.0637 53.0179 54.5696 53.8792 54.665 54.7385C54.7183 55.2179 54.6522 55.7785 54.3125 56.2883C53.9914 56.77 53.5345 57.0426 53.1113 57.1926H53.1123C53.1015 57.1966 53.0897 57.2 53.0781 57.2043C53.0719 57.2064 53.0658 57.2091 53.0596 57.2111H53.0586C52.1074 57.5561 48.7646 58.5001 44.1797 59.718C39.4551 60.9729 33.3058 62.5472 26.8125 64.1213H26.8115C14.6927 67.0772 7.59363 69.154 3.98535 70.9113C3.09815 71.3434 2.48437 71.7281 2.07812 72.0617C1.66788 72.3986 1.54698 72.62 1.51465 72.7082C1.49874 72.7517 1.48375 72.7975 1.53711 72.9308C1.60447 73.099 1.77129 73.3623 2.12793 73.7277C2.16466 73.7436 2.2455 73.7744 2.38867 73.8107C2.69418 73.8883 3.15577 73.9577 3.81055 73.9992C5.11664 74.0819 7.00291 74.0439 9.55664 73.8615C14.6534 73.4975 22.2192 72.5713 32.7197 71.0012L32.7295 71.0002C40.9954 69.8193 48.629 68.8839 54.2773 68.3166C57.0983 68.0333 59.4413 67.8398 61.126 67.7551C61.9636 67.713 62.6683 67.6961 63.1982 67.7121C63.4584 67.72 63.7177 67.7368 63.9463 67.7726C64.0592 67.7904 64.2044 67.8184 64.3555 67.8683C64.4699 67.9062 64.7704 68.0128 65.0391 68.2814L65.1143 68.3566L65.1787 68.4426C65.4626 68.8213 65.5238 69.2258 65.54 69.4523C65.5579 69.7026 65.5345 69.9438 65.5029 70.1447C65.4394 70.5491 65.3072 71.0078 65.1455 71.4797C64.8177 72.4363 64.2868 73.6743 63.6152 75.092C62.2663 77.9396 60.2811 81.6602 58.0107 85.6086L57.9971 85.632L56.2764 88.5226C54.6028 91.3543 53.0868 93.9771 51.873 96.092C50.5614 98.3775 49.5569 100.144 49.1182 100.885C49.1482 100.97 49.2022 101.093 49.293 101.25C49.5597 101.712 50.0269 102.272 50.6104 102.773C51.0721 103.155 51.3903 103.29 51.6436 103.33C51.8922 103.37 52.2585 103.348 52.8682 103.081C54.023 102.576 55.6118 101.403 58.124 99.2512L59.2588 98.2678C61.4451 96.2815 63.6382 94.4864 65.4248 93.1779C66.3182 92.5236 67.1323 91.9747 67.8057 91.5822C68.1407 91.3869 68.4671 91.2146 68.7676 91.0871C69.0213 90.9794 69.4308 90.8254 69.8721 90.8254C70.7049 90.8256 71.2325 91.3953 71.4209 91.6144C71.6806 91.9164 71.9059 92.2914 72.1016 92.6672C72.5002 93.4327 72.9158 94.4797 73.3301 95.6974C74.1644 98.15 75.062 101.499 75.8555 105.169L75.8584 105.183L75.8613 105.195C77.5333 113.654 78.931 119.044 80.3984 122.305C81.1284 123.927 81.8222 124.897 82.4697 125.456C83.0713 125.976 83.6788 126.184 84.4082 126.184Z" stroke="black" stroke-width="3"/>
</g>
<defs>
<filter id="filter0_d_1_965" x="0" y="0" width="151" height="135.448" filterUnits="userSpaceOnUse" color-interpolation-filters="sRGB">
<feFlood flood-opacity="0" result="BackgroundImageFix"/>
<feColorMatrix in="SourceAlpha" type="matrix" values="0 0 0 0 0 0 0 0 0 0 0 0 0 0 0 0 0 0 127 0" result="hardAlpha"/>
<feOffset dy="7.76457"/>
<feComposite in2="hardAlpha" operator="out"/>
<feColorMatrix type="matrix" values="0 0 0 0 0.745098 0 0 0 0 0.74902 0 0 0 0 0.705882 0 0 0 1 0"/>
<feBlend mode="normal" in2="BackgroundImageFix" result="effect1_dropShadow_1_965"/>
<feBlend mode="normal" in="SourceGraphic" in2="effect1_dropShadow_1_965" result="shape"/>
</filter>
</defs>
</svg>
