<svg width="85" height="136" viewBox="0 0 85 136" fill="none" xmlns="http://www.w3.org/2000/svg">
<g filter="url(#filter0_d_1_919)">
<path d="M-1.4321 22.5903V45.1805L-13.2183 39.2874C-19.7007 36.1444 -25.7902 33.3943 -26.9689 33.3943C-31.4869 33.3943 -28.3439 39.4838 -19.8971 46.9484C-13.8076 52.2522 -11.6468 55.1987 -13.4147 55.788C-14.9862 56.3773 -26.576 59.5203 -39.5408 62.6633C-63.7025 68.5564 -68.6134 71.1101 -64.8811 74.8424C-63.5061 76.2174 -54.0771 75.6281 -33.0584 72.4852C-16.5577 70.1279 -2.61071 68.7529 -2.0214 69.3422C-1.4321 70.1279 -4.77152 77.0032 -9.28956 84.8607C-14.004 92.7181 -17.9328 99.7898 -18.3256 100.379C-18.7185 101.165 -17.7363 102.736 -16.3613 103.915C-14.004 105.879 -12.0397 104.897 -5.7537 99.397C-1.4321 95.4682 2.88951 92.3252 3.87169 92.3252C4.85387 92.3252 6.81824 98.2183 8.38973 105.487C11.7292 122.38 14.0864 127.684 18.408 127.684C23.7118 127.684 24.694 121.594 23.1225 99.0041C22.3367 87.6108 22.3367 78.5747 23.3189 78.5747C24.3011 78.5747 32.1586 81.7177 40.8018 85.45C57.8918 92.9146 63.392 93.8967 63.392 89.5751C63.392 85.6464 60.249 82.8963 45.1234 72.4852C37.8552 67.7707 31.9621 63.2526 31.9621 62.6633C31.9621 62.074 41.9804 58.7346 54.1595 55.1987C75.9639 48.9128 85 44.7876 85 41.2517C85 38.3052 72.6245 38.8945 52.9808 42.4304C43.5519 44.1983 35.1051 45.1805 34.5158 44.3947C33.9265 43.8054 35.3015 38.6981 37.6588 33.1978C46.4984 11.7862 40.9982 9.82188 27.2476 29.662C22.1403 37.323 17.0329 42.8232 16.2472 41.841C15.4614 41.0553 13.3007 33.1978 11.3363 24.5546C7.40755 6.08958 4.85387 4.57764e-05 1.12158 4.57764e-05C-0.842789 4.57764e-05 -1.4321 5.1074 -1.4321 22.5903Z" fill="#F3ABCB"/>
<path d="M18.4082 126.684C19.519 126.684 20.2722 126.378 20.8525 125.719C21.4813 125.005 22.0114 123.759 22.3564 121.654C23.0465 117.442 22.9122 110.39 22.125 99.0735V99.0725C21.7312 93.3622 21.5328 88.2276 21.5576 84.51C21.57 82.6575 21.6376 81.1263 21.7705 80.0432C21.8359 79.5108 21.9239 79.03 22.0508 78.6604C22.1124 78.4809 22.2053 78.2588 22.3574 78.0637C22.5105 77.8674 22.8281 77.5745 23.3193 77.5745C23.6045 77.5746 23.9671 77.6687 24.2725 77.7561C24.6245 77.8569 25.0663 78.0007 25.5791 78.1799C26.6072 78.5393 27.966 79.0548 29.5547 79.6829C32.7348 80.9401 36.8706 82.6628 41.1982 84.5315L41.2021 84.5334C49.7631 88.2727 55.3061 90.3342 58.6846 90.9485C60.4016 91.2607 61.3393 91.1531 61.8115 90.9124C62.1419 90.7438 62.3915 90.4321 62.3916 89.5754C62.3916 88.7473 62.2316 88.0052 61.7871 87.1907C61.3292 86.3515 60.5496 85.3988 59.25 84.1946C56.64 81.7762 52.1453 78.5327 44.5791 73.3245C40.9282 70.9563 37.6186 68.6347 35.2158 66.8264C34.0164 65.9238 33.0316 65.1398 32.3398 64.5374C31.9968 64.2386 31.707 63.9689 31.4961 63.7415C31.3924 63.6296 31.2871 63.5055 31.2012 63.3782C31.1581 63.3144 31.1069 63.2302 31.0635 63.1311C31.0244 63.0418 30.9619 62.8751 30.9619 62.6633C30.9619 62.3034 31.1418 62.0589 31.2158 61.968C31.306 61.8574 31.405 61.7765 31.4746 61.7239C31.6175 61.6159 31.7889 61.5172 31.9551 61.4309C32.2973 61.2532 32.773 61.0458 33.3467 60.8167C34.5024 60.355 36.1564 59.7654 38.1758 59.0881C42.2196 57.732 47.7828 56.0089 53.8809 54.2385L53.8828 54.2375C64.7785 51.0964 72.4295 48.5106 77.3438 46.2834C79.8059 45.1676 81.5234 44.1666 82.6104 43.2678C83.7143 42.355 83.9963 41.6916 83.999 41.2581C83.9893 41.2437 83.9556 41.1985 83.8633 41.135C83.6458 40.9856 83.2355 40.8156 82.5566 40.675C81.2116 40.3965 79.1489 40.2998 76.3965 40.4094C70.9167 40.6277 62.9668 41.649 53.1641 43.4133H53.165C48.4341 44.3004 43.9385 44.9926 40.542 45.3645C38.8479 45.55 37.4042 45.6585 36.333 45.6682C35.8017 45.673 35.3268 45.6538 34.9463 45.5979C34.7574 45.5702 34.5572 45.5287 34.3711 45.4602C34.2225 45.4055 33.9729 45.2942 33.7715 45.0627C33.6028 44.8787 33.5175 44.6746 33.4717 44.5247C33.4206 44.3574 33.398 44.1886 33.3877 44.0383C33.3672 43.739 33.3893 43.397 33.4346 43.0432C33.5261 42.3281 33.7304 41.4104 34.0186 40.3704C34.5973 38.2819 35.5463 35.5875 36.7393 32.804C38.9358 27.4821 40.2163 23.4261 40.71 20.6477C40.9586 19.2481 40.9934 18.2472 40.8877 17.5989C40.8356 17.2796 40.7576 17.0964 40.6963 17.0012C40.6443 16.9206 40.6109 16.9101 40.5977 16.9055C40.5254 16.8807 40.1859 16.8437 39.4102 17.2854C38.6788 17.7018 37.7462 18.4396 36.6191 19.5471C34.3743 21.7533 31.4963 25.2877 28.0791 30.217H28.0801C25.506 34.0782 22.9215 37.4104 20.8662 39.6663C19.845 40.7871 18.9222 41.678 18.1758 42.2327C17.8129 42.5023 17.4222 42.7455 17.0381 42.8674C16.6939 42.9766 16.0276 43.0697 15.54 42.5481C15.2965 42.3046 15.1133 41.9353 14.9795 41.6379C14.8247 41.294 14.6568 40.8585 14.4805 40.3547C14.1268 39.3442 13.7159 37.9953 13.2715 36.4153C12.3817 33.2516 11.346 29.1092 10.3613 24.7766L10.3584 24.7629C8.39336 15.5273 6.78855 9.47229 5.23242 5.73755C4.45365 3.8685 3.7189 2.66184 3.01855 1.93286C2.34682 1.23366 1.73634 1.00037 1.12207 1.00024C1.11822 1.00024 1.12207 0.992444 1.0957 1.01489C1.04687 1.05656 0.939344 1.17824 0.808594 1.47485C0.541411 2.08114 0.295894 3.13927 0.101562 4.85181C-0.283947 8.2491 -0.431639 13.8413 -0.431641 22.5901V46.7981L-1.87891 46.0745L-13.665 40.1819C-16.897 38.615 -20.0221 37.1508 -22.4814 36.0793C-23.7139 35.5424 -24.7683 35.1088 -25.5791 34.8118C-25.985 34.6631 -26.3178 34.5531 -26.5742 34.4817C-26.7021 34.4461 -26.8023 34.4225 -26.877 34.4084C-26.957 34.3934 -26.982 34.3938 -26.9688 34.3938C-27.4337 34.3938 -27.6949 34.4746 -27.8271 34.5471C-27.9313 34.6043 -27.9736 34.663 -28.001 34.7532C-28.0872 35.0377 -28.0275 35.7175 -27.4072 36.9104C-26.2162 39.2009 -23.4316 42.4917 -19.2412 46.1956L-19.2402 46.1946C-16.1902 48.8511 -14.0544 50.9755 -12.9033 52.5452C-12.3476 53.303 -11.9112 54.0732 -11.8311 54.7932C-11.7874 55.1864 -11.8443 55.622 -12.1035 56.011C-12.3512 56.3825 -12.7102 56.6009 -13.0645 56.7249H-13.0635C-13.9081 57.0416 -17.2606 57.9895 -21.9482 59.2346C-26.6694 60.4887 -32.8152 62.0618 -39.3047 63.635H-39.3037C-51.4112 66.5881 -58.5672 68.6767 -62.2334 70.4622C-63.1399 70.9036 -63.7917 71.3075 -64.2393 71.675C-64.6898 72.045 -64.8814 72.3359 -64.9551 72.5374C-65.0572 72.8173 -65.0368 73.272 -64.1738 74.135C-64.1939 74.115 -64.1081 74.2002 -63.7344 74.2952C-63.3873 74.3833 -62.8922 74.4558 -62.2217 74.4983C-60.8823 74.5831 -58.9693 74.5436 -56.4072 74.3606C-51.2906 73.9951 -43.7094 73.0669 -33.2061 71.4963L-33.2002 71.4954C-24.9394 70.3153 -17.3127 69.3802 -11.6729 68.8137C-8.85515 68.5307 -6.52212 68.3383 -4.84961 68.2542C-4.01646 68.2123 -3.32739 68.1968 -2.81738 68.2122C-2.56545 68.2198 -2.32956 68.2357 -2.13086 68.2668C-2.03256 68.2823 -1.91708 68.3049 -1.80176 68.343C-1.71078 68.3731 -1.4997 68.4498 -1.31445 68.635L-1.26367 68.6858L-1.22168 68.7424C-1.01987 69.0115 -0.972031 69.3057 -0.958984 69.4885C-0.944814 69.6872 -0.962883 69.8872 -0.991211 70.0676C-1.04814 70.43 -1.16924 70.8568 -1.32715 71.3176C-1.64593 72.2479 -2.16824 73.4655 -2.83691 74.8772C-4.17816 77.7087 -6.15622 81.4177 -8.42285 85.3596L-8.42773 85.3674L-8.43164 85.3752L-10.1543 88.2678C-11.8294 91.1021 -13.3462 93.7271 -14.5605 95.843C-16.0078 98.3647 -17.0622 100.223 -17.4111 100.796C-17.4103 100.815 -17.409 100.846 -17.3994 100.891C-17.3696 101.032 -17.2916 101.239 -17.1406 101.5C-16.8413 102.019 -16.3355 102.618 -15.7207 103.147C-15.2124 103.57 -14.8103 103.763 -14.4355 103.823C-14.0652 103.883 -13.5999 103.832 -12.9316 103.539C-11.5302 102.926 -9.58905 101.423 -6.42773 98.6575H-6.42676C-4.24415 96.6733 -2.0554 94.8821 -0.279297 93.5813C0.606903 92.9323 1.40512 92.3943 2.05762 92.0139C2.38278 91.8244 2.68907 91.6633 2.96289 91.5471C3.20554 91.4442 3.53704 91.3254 3.87207 91.3254C4.46818 91.3256 4.86614 91.7362 5.04199 91.9407C5.2653 92.2004 5.47 92.5363 5.6582 92.8977C6.03958 93.6301 6.44517 94.6497 6.85645 95.8586C7.6828 98.2877 8.57627 101.618 9.36719 105.276L9.36914 105.283L9.37109 105.292C11.0423 113.747 12.4484 119.19 13.9424 122.51C14.6867 124.164 15.4174 125.207 16.1426 125.834C16.8373 126.435 17.5618 126.684 18.4082 126.684Z" stroke="black" stroke-width="2"/>
</g>
<defs>
<filter id="filter0_d_1_919" x="-66" y="0" width="151" height="135.448" filterUnits="userSpaceOnUse" color-interpolation-filters="sRGB">
<feFlood flood-opacity="0" result="BackgroundImageFix"/>
<feColorMatrix in="SourceAlpha" type="matrix" values="0 0 0 0 0 0 0 0 0 0 0 0 0 0 0 0 0 0 127 0" result="hardAlpha"/>
<feOffset dy="7.76457"/>
<feComposite in2="hardAlpha" operator="out"/>
<feColorMatrix type="matrix" values="0 0 0 0 0.745098 0 0 0 0 0.74902 0 0 0 0 0.705882 0 0 0 1 0"/>
<feBlend mode="normal" in2="BackgroundImageFix" result="effect1_dropShadow_1_919"/>
<feBlend mode="normal" in="SourceGraphic" in2="effect1_dropShadow_1_919" result="shape"/>
</filter>
</defs>
</svg>
