<svg width="43" height="43" viewBox="0 0 43 43" fill="none" xmlns="http://www.w3.org/2000/svg">
<path d="M1.50002 21.5C1.49303 16.3718 3.46289 11.4382 7.00002 7.72502C8.86636 5.75561 11.1149 4.18776 13.6081 3.1174C16.1014 2.04704 18.7868 1.49668 21.5 1.50002M29.5 3.16402C31.7776 4.16055 33.8499 5.57225 35.611 7.32701C37.4803 9.18324 38.9631 11.3915 39.9739 13.8242C40.9847 16.2568 41.5034 18.8657 41.5 21.5C41.5 23.962 41.055 26.321 40.24 28.5M21.5 41.5C24.1196 41.5034 26.7141 40.9905 29.1354 39.9907C31.5566 38.9909 33.7571 37.5237 35.611 35.673" stroke="black" stroke-width="3" stroke-linecap="round" stroke-linejoin="round"/>
</svg>
