<svg width="97" height="89" viewBox="0 0 97 89" fill="none" xmlns="http://www.w3.org/2000/svg">
<g filter="url(#filter0_d_1_918)">
<path d="M64.5679 -24.4097V-1.81953L52.7817 -7.71263C46.2993 -10.8556 40.2098 -13.6057 39.0311 -13.6057C34.5131 -13.6057 37.6561 -7.5162 46.1029 -0.0516052C52.1924 5.25218 54.3532 8.19873 52.5853 8.78804C51.0138 9.37735 39.424 12.5203 26.4592 15.6633C2.29751 21.5564 -2.61341 24.1101 1.11889 27.8424C2.49394 29.2174 11.9229 28.6281 32.9416 25.4852C49.4423 23.1279 63.3893 21.7529 63.9786 22.3422C64.5679 23.1279 61.2285 30.0032 56.7104 37.8607C51.996 45.7181 48.0672 52.7898 47.6744 53.3792C47.2815 54.1649 48.2637 55.7364 49.6387 56.915C51.996 58.8794 53.9603 57.8972 60.2463 52.397C64.5679 48.4682 68.8895 45.3252 69.8717 45.3252C70.8539 45.3252 72.8182 51.2183 74.3897 58.4865C77.7292 75.38 80.0864 80.6838 84.408 80.6838C89.7118 80.6838 90.694 74.5943 89.1225 52.0041C88.3367 40.6108 88.3367 31.5747 89.3189 31.5747C90.3011 31.5747 98.1586 34.7177 106.802 38.45C123.892 45.9146 129.392 46.8967 129.392 42.5751C129.392 38.6464 126.249 35.8963 111.123 25.4852C103.855 20.7707 97.9621 16.2526 97.9621 15.6633C97.9621 15.074 107.98 11.7346 120.159 8.19873C141.964 1.91277 151 -2.21241 151 -5.74827C151 -8.69482 138.624 -8.10551 118.981 -4.56965C109.552 -2.80172 101.105 -1.81953 100.516 -2.60528C99.9265 -3.19459 101.302 -8.30194 103.659 -13.8022C112.498 -35.2138 106.998 -37.1781 93.2476 -17.338C88.1403 -9.67699 83.0329 -4.17677 82.2472 -5.15896C81.4614 -5.9447 79.3007 -13.8022 77.3363 -22.4454C73.4075 -40.9104 70.8539 -47 67.1216 -47C65.1572 -47 64.5679 -41.8926 64.5679 -24.4097Z" fill="#F3ABCB"/>
<path d="M84.4082 79.6838C85.519 79.6838 86.2722 79.378 86.8525 78.719C87.4813 78.0048 88.0114 76.7594 88.3564 74.6536C89.0465 70.4419 88.9122 63.3899 88.125 52.0735V52.0725C87.7312 46.3622 87.5328 41.2276 87.5576 37.51C87.57 35.6575 87.6376 34.1263 87.7705 33.0432C87.8359 32.5108 87.9239 32.03 88.0508 31.6604C88.1124 31.4809 88.2053 31.2588 88.3574 31.0637C88.5105 30.8674 88.8281 30.5745 89.3193 30.5745C89.6045 30.5746 89.9671 30.6687 90.2725 30.7561C90.6245 30.8569 91.0663 31.0007 91.5791 31.1799C92.6072 31.5393 93.966 32.0548 95.5547 32.6829C98.7348 33.9401 102.871 35.6628 107.198 37.5315L107.202 37.5334C115.763 41.2727 121.306 43.3342 124.685 43.9485C126.402 44.2607 127.339 44.1531 127.812 43.9124C128.142 43.7438 128.392 43.4321 128.392 42.5754C128.392 41.7473 128.232 41.0052 127.787 40.1907C127.329 39.3515 126.55 38.3988 125.25 37.1946C122.64 34.7762 118.145 31.5327 110.579 26.3245C106.928 23.9563 103.619 21.6347 101.216 19.8264C100.016 18.9238 99.0316 18.1398 98.3398 17.5374C97.9968 17.2386 97.707 16.9689 97.4961 16.7415C97.3924 16.6296 97.2871 16.5055 97.2012 16.3782C97.1581 16.3144 97.1069 16.2302 97.0635 16.1311C97.0244 16.0418 96.9619 15.8751 96.9619 15.6633C96.9619 15.3034 97.1418 15.0589 97.2158 14.968C97.306 14.8574 97.405 14.7765 97.4746 14.7239C97.6175 14.6159 97.7889 14.5172 97.9551 14.4309C98.2973 14.2532 98.773 14.0458 99.3467 13.8167C100.502 13.355 102.156 12.7654 104.176 12.0881C108.22 10.732 113.783 9.00892 119.881 7.23853L119.883 7.23755C130.779 4.09644 138.43 1.51058 143.344 -0.716553C145.806 -1.83242 147.523 -2.83337 148.61 -3.73218C149.714 -4.64504 149.996 -5.30842 149.999 -5.74194C149.989 -5.75629 149.956 -5.80152 149.863 -5.86499C149.646 -6.01439 149.235 -6.18435 148.557 -6.32495C147.212 -6.60352 145.149 -6.70019 142.396 -6.59058C136.917 -6.37235 128.967 -5.351 119.164 -3.58667H119.165C114.434 -2.69962 109.939 -2.00738 106.542 -1.6355C104.848 -1.45002 103.404 -1.34146 102.333 -1.33179C101.802 -1.327 101.327 -1.34624 100.946 -1.4021C100.757 -1.42983 100.557 -1.4713 100.371 -1.53979C100.223 -1.59449 99.9729 -1.70582 99.7715 -1.93726C99.6028 -2.12133 99.5175 -2.32539 99.4717 -2.47534C99.4206 -2.64258 99.398 -2.81143 99.3877 -2.96167C99.3672 -3.26105 99.3893 -3.60296 99.4346 -3.95679C99.5261 -4.67189 99.7304 -5.58961 100.019 -6.62964C100.597 -8.71805 101.546 -11.4125 102.739 -14.196C104.936 -19.5179 106.216 -23.5739 106.71 -26.3523C106.959 -27.7519 106.993 -28.7528 106.888 -29.4011C106.836 -29.7204 106.758 -29.9036 106.696 -29.9988C106.644 -30.0794 106.611 -30.0899 106.598 -30.0945C106.525 -30.1193 106.186 -30.1563 105.41 -29.7146C104.679 -29.2982 103.746 -28.5604 102.619 -27.4529C100.374 -25.2467 97.4963 -21.7123 94.0791 -16.783H94.0801C91.506 -12.9218 88.9215 -9.5896 86.8662 -7.33374C85.845 -6.21286 84.9222 -5.322 84.1758 -4.76733C83.8129 -4.4977 83.4222 -4.25449 83.0381 -4.13257C82.6939 -4.02342 82.0276 -3.93034 81.54 -4.4519C81.2965 -4.69545 81.1133 -5.06467 80.9795 -5.36206C80.8247 -5.70605 80.6568 -6.14147 80.4805 -6.64526C80.1268 -7.65577 79.7159 -9.00473 79.2715 -10.5847C78.3817 -13.7484 77.346 -17.8908 76.3613 -22.2234L76.3584 -22.2371C74.3934 -31.4727 72.7886 -37.5277 71.2324 -41.2625C70.4537 -43.1315 69.7189 -44.3382 69.0186 -45.0671C68.3468 -45.7663 67.7363 -45.9996 67.1221 -45.9998C67.1182 -45.9998 67.1221 -46.0076 67.0957 -45.9851C67.0469 -45.9434 66.9393 -45.8218 66.8086 -45.5251C66.5414 -44.9189 66.2959 -43.8607 66.1016 -42.1482C65.7161 -38.7509 65.5684 -33.1587 65.5684 -24.4099V-0.201904L64.1211 -0.925537L52.335 -6.81812C49.103 -8.38503 45.9779 -9.84924 43.5186 -10.9207C42.2861 -11.4576 41.2317 -11.8912 40.4209 -12.1882C40.015 -12.3369 39.6822 -12.4469 39.4258 -12.5183C39.2979 -12.5539 39.1977 -12.5775 39.123 -12.5916C39.043 -12.6066 39.018 -12.6062 39.0312 -12.6062C38.5663 -12.6062 38.3051 -12.5254 38.1729 -12.4529C38.0687 -12.3957 38.0264 -12.337 37.999 -12.2468C37.9128 -11.9623 37.9725 -11.2825 38.5928 -10.0896C39.7838 -7.79909 42.5684 -4.5083 46.7588 -0.804443L46.7598 -0.80542C49.8098 1.85108 51.9456 3.97555 53.0967 5.54517C53.6524 6.30301 54.0888 7.07316 54.1689 7.79321C54.2126 8.18644 54.1557 8.62202 53.8965 9.01099C53.6488 9.38246 53.2898 9.60089 52.9355 9.72485H52.9365C52.0919 10.0416 48.7394 10.9895 44.0518 12.2346C39.3306 13.4887 33.1848 15.0618 26.6953 16.635H26.6963C14.5888 19.5881 7.4328 21.6767 3.7666 23.4622C2.86013 23.9036 2.20831 24.3075 1.76074 24.675C1.31023 25.045 1.11856 25.3359 1.04492 25.5374C0.942776 25.8173 0.963157 26.272 1.82617 27.135C1.80612 27.115 1.89187 27.2002 2.26562 27.2952C2.6127 27.3833 3.10776 27.4558 3.77832 27.4983C5.11768 27.5831 7.03066 27.5436 9.59277 27.3606C14.7094 26.9951 22.2906 26.0669 32.7939 24.4963L32.7998 24.4954C41.0606 23.3153 48.6873 22.3802 54.3271 21.8137C57.1448 21.5307 59.4779 21.3383 61.1504 21.2542C61.9835 21.2123 62.6726 21.1968 63.1826 21.2122C63.4346 21.2198 63.6704 21.2357 63.8691 21.2668C63.9674 21.2823 64.0829 21.3049 64.1982 21.343C64.2892 21.3731 64.5003 21.4498 64.6855 21.635L64.7363 21.6858L64.7783 21.7424C64.9801 22.0115 65.028 22.3057 65.041 22.4885C65.0552 22.6872 65.0371 22.8872 65.0088 23.0676C64.9519 23.43 64.8308 23.8568 64.6729 24.3176C64.3541 25.2479 63.8318 26.4655 63.1631 27.8772C61.8218 30.7087 59.8438 34.4177 57.5771 38.3596L57.5723 38.3674L57.5684 38.3752L55.8457 41.2678C54.1706 44.1021 52.6538 46.7271 51.4395 48.843C49.9922 51.3647 48.9378 53.2228 48.5889 53.7961C48.5897 53.8147 48.591 53.8456 48.6006 53.8909C48.6304 54.0319 48.7084 54.2386 48.8594 54.5002C49.1587 55.0191 49.6645 55.6179 50.2793 56.1467C50.7876 56.5703 51.1897 56.7635 51.5645 56.8235C51.9348 56.8827 52.4001 56.8317 53.0684 56.5393C54.4698 55.9262 56.411 54.423 59.5723 51.6575H59.5732C61.7558 49.6733 63.9446 47.8821 65.7207 46.5813C66.6069 45.9323 67.4051 45.3943 68.0576 45.0139C68.3828 44.8244 68.6891 44.6633 68.9629 44.5471C69.2055 44.4442 69.537 44.3254 69.8721 44.3254C70.4682 44.3256 70.8661 44.7362 71.042 44.9407C71.2653 45.2004 71.47 45.5363 71.6582 45.8977C72.0396 46.6301 72.4452 47.6497 72.8564 48.8586C73.6828 51.2877 74.5763 54.6176 75.3672 58.2756L75.3691 58.2834L75.3711 58.2922C77.0423 66.7466 78.4484 72.1901 79.9424 75.51C80.6867 77.1641 81.4174 78.2075 82.1426 78.8342C82.8373 79.4345 83.5618 79.6838 84.4082 79.6838Z" stroke="black" stroke-width="2"/>
</g>
<defs>
<filter id="filter0_d_1_918" x="0" y="-47" width="151" height="135.448" filterUnits="userSpaceOnUse" color-interpolation-filters="sRGB">
<feFlood flood-opacity="0" result="BackgroundImageFix"/>
<feColorMatrix in="SourceAlpha" type="matrix" values="0 0 0 0 0 0 0 0 0 0 0 0 0 0 0 0 0 0 127 0" result="hardAlpha"/>
<feOffset dy="7.76457"/>
<feComposite in2="hardAlpha" operator="out"/>
<feColorMatrix type="matrix" values="0 0 0 0 0.745098 0 0 0 0 0.74902 0 0 0 0 0.705882 0 0 0 1 0"/>
<feBlend mode="normal" in2="BackgroundImageFix" result="effect1_dropShadow_1_918"/>
<feBlend mode="normal" in="SourceGraphic" in2="effect1_dropShadow_1_918" result="shape"/>
</filter>
</defs>
</svg>
