<svg width="22" height="25" viewBox="0 0 22 25" fill="none" xmlns="http://www.w3.org/2000/svg">
<path fill-rule="evenodd" clip-rule="evenodd" d="M17.46 16.6924C16.1014 15.0491 14.6655 13.4318 13.1487 11.9541C13.025 11.834 11.4951 10.574 10.586 10.1032C9.97276 9.78586 9.4293 9.72817 9.11105 9.75887C8.18514 9.84821 7.62028 10.3498 7.38858 11.2078C7.1671 12.0304 7.0871 12.8874 7.0871 13.7621C5.71081 11.1817 4.45177 8.52776 3.68686 5.7333C3.62358 5.50252 3.57238 5.39457 3.56401 5.37503C3.30624 4.80553 2.94054 4.61194 2.81026 4.53563C2.17004 4.15969 1.5931 4.22301 1.10642 4.44169C1.04686 4.46775 -0.265244 5.05027 0.0483537 6.53822C0.0734787 6.65827 0.28754 7.51343 0.349887 7.8475C0.40479 8.13783 0.52387 8.39931 0.690439 8.62078C1.97274 12.3039 3.93439 15.7833 5.8169 19.1807C6.22355 19.915 6.54086 20.6715 6.75024 21.4839C6.81166 21.7211 6.83678 22.2581 6.89075 22.5214C6.98288 22.9671 7.16525 23.2658 7.28157 23.4185C7.88643 24.2132 8.63181 24.2942 9.31949 24.0904C9.61354 24.0038 10.2026 23.8056 10.5608 22.9523C11.3667 21.0353 11.2755 18.9183 11.042 16.7855C10.9731 16.1545 10.8875 15.5236 10.8354 14.9002C12.4908 16.5454 14.0402 18.36 15.4965 20.1736C15.6566 20.3727 17.2776 22.1855 17.7085 22.4554C18.786 23.1328 19.6226 22.6238 19.9809 22.3204C20.5271 21.857 20.957 21.0614 21.132 20.048C21.3572 18.7369 21.1794 16.9325 21.1618 16.2067C21.0436 11.3212 20.8667 6.21439 19.7696 1.44436C19.5398 0.443085 18.5404 -0.182283 17.5391 0.0475644C16.5378 0.277412 15.9125 1.27779 16.1424 2.27814C17.1836 6.80808 17.3278 11.6591 17.4404 16.297C17.4432 16.404 17.4507 16.538 17.46 16.6924Z" fill="black"/>
</svg>
