<svg width="43" height="37" viewBox="0 0 43 37" fill="none" xmlns="http://www.w3.org/2000/svg">
<path d="M21.0761 1.10855C20.2873 1.72833 18.766 3.70036 17.7518 5.44702L15.8925 8.65861L9.80739 9.10935C2.70808 9.67279 1.24315 10.1235 0.397995 11.9829C-0.616191 14.1803 0.17262 15.7016 4.34205 19.9273C6.53945 22.0684 8.34245 24.2095 8.34245 24.6039C8.34245 24.9983 7.66633 27.5901 6.87751 30.2946C6.03236 33.0554 5.52527 35.7599 5.75064 36.267C6.25773 37.6756 8.34245 37.1122 13.6951 34.0696C16.1742 32.661 18.4843 31.4778 18.766 31.4778C19.1041 31.4778 20.8507 32.2666 22.7101 33.1681C26.6541 35.0838 28.5698 35.2528 30.3728 33.7879C31.4997 32.8864 31.7251 32.0976 31.8941 28.4916L32.1195 24.2095L35.6128 22.0121C40.1203 19.0258 42.036 17.2792 42.4867 15.4198C43.1628 12.6027 39.6695 10.687 33.8661 10.6306C30.4292 10.6306 28.7389 9.78548 28.2881 7.98248C27.6683 5.44702 26.0344 1.89737 24.9638 0.883179C23.7243 -0.35638 22.8791 -0.300037 21.0761 1.10855ZM22.9918 8.71495C22.9918 9.1657 22.5974 9.50376 22.1466 9.50376C21.1888 9.50376 21.1325 9.39107 21.6396 8.15151C22.034 7.13733 22.9918 7.47539 22.9918 8.71495ZM12.8499 14.8564C12.8499 15.5889 11.4977 18.5187 11.1596 18.5187C10.4835 18.5187 7.21558 15.7016 7.21558 15.1381C7.21558 14.8564 7.77901 14.5747 8.51148 14.462C9.6947 14.293 12.8499 14.5747 12.8499 14.8564ZM23.1608 15.0818C24.6258 15.6452 24.9075 16.265 25.5273 19.6456C25.8653 21.5613 25.809 21.674 22.8228 23.308L19.7239 24.9419L17.4701 23.4206L15.16 21.8994L16.0052 19.4766C17.5265 15.0818 19.6675 13.7859 23.1608 15.0818ZM34.4859 16.4904C34.1478 17.3919 31.556 18.6314 30.8799 18.237C30.6545 18.1243 30.3165 17.4482 30.1474 16.8284C29.8657 15.8143 30.1474 15.7016 32.3448 15.7016C34.1478 15.7016 34.7113 15.8706 34.4859 16.4904ZM13.4134 27.7591C13.4134 27.9281 13.188 28.2099 12.8499 28.3789C12.5682 28.5479 12.2865 28.4352 12.2865 28.1535C12.2865 27.8155 12.5682 27.5337 12.8499 27.5337C13.188 27.5337 13.4134 27.6464 13.4134 27.7591Z" fill="black"/>
</svg>
