<svg width="17" height="20" viewBox="0 0 17 20" fill="none" xmlns="http://www.w3.org/2000/svg">
<path fill-rule="evenodd" clip-rule="evenodd" d="M9.43301 13.8383C9.24317 13.4363 9.09058 13.119 9.05429 13.051C7.32532 9.81735 5.44929 6.62648 3.40672 3.58077C2.83443 2.72745 1.67778 2.49947 0.82446 3.07176C-0.0288597 3.64405 -0.256843 4.80075 0.315449 5.65407C2.28916 8.59649 4.1009 11.6813 5.77218 14.8061C5.89967 15.0443 6.74929 17.1613 7.35601 18.0444C7.90597 18.8438 8.59644 19.1294 8.99193 19.1881C9.62005 19.2811 10.6027 19.0559 11.4002 17.9914C12.4415 16.602 13.7917 12.8901 14.0141 12.2741C14.4217 11.1406 14.7669 9.95138 15.0871 8.79469C15.6938 6.60045 16.0427 4.36709 16.3545 2.11701C16.4959 1.09898 15.7841 0.159136 14.766 0.0176911C13.7489 -0.122823 12.8081 0.589081 12.6676 1.60618C12.3782 3.69341 12.0628 5.76665 11.4998 7.80178C11.2039 8.86912 10.8875 9.96813 10.5115 11.0141C10.398 11.3277 9.95691 12.623 9.43301 13.8383Z" fill="black"/>
</svg>
