<svg width="98" height="54" viewBox="0 0 98 54" fill="none" xmlns="http://www.w3.org/2000/svg">
<path d="M0.288106 3.09658C-1.57856 10.4299 5.88811 28.8299 15.0881 39.3632C17.8881 42.6966 23.4881 46.6966 28.8214 49.3632C37.2214 53.4966 38.5548 53.7632 51.7548 53.7632C64.4214 53.7632 66.5548 53.3632 74.1548 49.8966C83.8881 45.3632 97.0881 32.1632 97.0881 26.8299C97.0881 22.1632 93.7548 22.9632 84.5548 30.2966C74.4214 38.2966 69.6214 40.8299 61.2214 42.4299C53.2214 43.8966 40.2881 42.0299 33.2214 38.4299C24.8214 34.1632 12.4214 18.4299 7.48811 5.76325C4.95477 -0.636753 1.62144 -1.97009 0.288106 3.09658Z" fill="#0C0C0C"/>
</svg>
