<svg width="20" height="35" viewBox="0 0 20 35" fill="none" xmlns="http://www.w3.org/2000/svg">
<path fill-rule="evenodd" clip-rule="evenodd" d="M15.3738 22.0218C15.1197 21.7724 14.8638 21.523 14.606 21.2755C11.9782 18.7565 9.37074 16.2346 6.92431 13.5332C6.33154 12.8791 5.2186 11.6098 4.10101 10.9566C3.30166 10.4894 2.47436 10.294 1.71782 10.3908C1.23579 10.4522 0.531391 10.6951 0.17778 11.6191C0.118224 11.7745 0.0475176 12.0416 0.019601 12.3821C-0.0250657 12.933 0.0186491 13.9213 0.0326074 14.0581C0.228024 16.0513 0.423434 17.9571 0.781698 19.929C1.11111 21.7436 1.3363 23.5721 1.69084 25.3839C2.22126 28.0946 2.90431 30.7039 3.9 33.2852C4.26943 34.2437 5.34795 34.7211 6.30642 34.3516C7.26396 33.9822 7.74226 32.9047 7.37283 31.9462C6.45623 29.5686 5.83184 27.1659 5.34423 24.6692C4.99248 22.8742 4.77006 21.0615 4.44343 19.2636C4.23127 18.0939 4.0805 16.9484 3.95208 15.7927L4.16519 16.0318C6.67117 18.7983 9.3391 21.3825 12.0303 23.962C13.0371 24.9279 14.0096 25.9218 15.0322 26.8719C15.1151 26.9928 15.4975 27.5474 15.6855 27.7373C15.9981 28.0537 16.3359 28.2304 16.63 28.3179C17.3772 28.5412 18.1356 28.4585 18.7982 27.621C19.2942 26.9938 19.5798 26.0213 19.5584 24.86C19.5296 23.2641 18.9238 21.1601 18.7954 20.1905C17.9821 14.0553 16.6663 7.94438 16.3164 1.75618C16.2587 0.730711 15.3793 -0.0547088 14.3539 0.00298564C13.3284 0.0616106 12.542 0.940972 12.6007 1.96644C12.9552 8.24769 14.2794 14.4518 15.1048 20.68C15.1495 21.0112 15.2556 21.483 15.3738 22.0218Z" fill="black"/>
</svg>
