<svg width="30" height="45" viewBox="0 0 30 45" fill="none" xmlns="http://www.w3.org/2000/svg">
<path d="M17.8955 0.819191C15.0661 2.09697 11.9629 6.34101 10.457 10.9958L9.90936 12.7299L7.26254 12.6842C3.79429 12.6386 1.92326 13.5969 0.782392 16.0612C-2.27514 22.8608 4.02246 36.9163 12.83 42.9858C15.9788 45.1762 16.3895 44.9937 19.447 40.4302C24.8319 32.3985 27.3875 27.0592 29.076 20.4878C32.3617 7.39061 26.4748 -3.05977 17.8955 0.819191ZM23.1435 3.83109C25.0145 4.78942 26.3835 7.93822 26.703 11.9085C27.1593 18.4342 24.1474 26.9223 17.8955 36.7794C16.2526 39.3806 14.7466 41.4798 14.5185 41.4798C13.5601 41.4798 8.58595 35.3191 6.89746 32.079C1.55818 21.8568 2.24271 14.0533 8.31214 16.3807C9.13357 16.7001 9.54428 17.2477 9.72682 18.5255C10.6395 23.956 13.3776 28.2457 15.9332 28.2457C17.576 28.2457 18.6256 26.7398 18.6256 24.3668C18.58 21.9481 17.3022 19.1644 14.9748 16.6545L13.0582 14.5553L13.5601 12.4561C14.8379 7.43624 18.2149 3.23784 21.0443 3.14657C21.5006 3.14657 22.4589 3.46601 23.1435 3.83109Z" fill="black"/>
</svg>
