<svg width="549" height="9" viewBox="0 0 549 9" fill="none" xmlns="http://www.w3.org/2000/svg">
<path d="M446.793 3.3293C530.239 3.3293 518.584 3.3293 546.001 3.3293C545.529 3.60242 541.278 4.64716 539.523 4.8588C537.331 5.12334 479.802 4.97898 467.524 4.97898C425.494 4.97898 235.628 3.99201 223.202 3.99201M446.793 3.3293C446.793 3.3293 245.534 4.97898 213.435 4.97898C181.336 4.97898 188.928 5.02358 121.164 4.97898C70.5012 4.94564 9.92077 4.97898 5.84412 4.97898C1.76747 4.97898 3.2717 3 3.2717 3C31.7673 3.99199 81.3601 3.99201 146.493 3.99201C168.937 3.99201 195.189 3.99201 223.202 3.99201M446.793 3.3293C385.792 3.3293 299.337 3.99202 223.202 3.99201" stroke="black" stroke-width="6" stroke-miterlimit="10" stroke-linecap="round" stroke-linejoin="round"/>
</svg>
