<svg width="53" height="49" viewBox="0 0 53 49" fill="none" xmlns="http://www.w3.org/2000/svg">
<g filter="url(#filter0_d_1_924)">
<path d="M44.4442 7.74139C39.003 3.04627 29.6097 -0.222266 22.2019 0.0118546C18.4727 0.175821 12.9217 1.73132 9.20793 3.74819C-1.26874 9.33368 -3.14201 23.633 5.32841 33.4883C13.9474 43.4726 30.4982 47.7305 40.5605 42.5516C48.633 38.3576 53.4847 29.3122 52.1522 20.7513C51.6872 17.7569 51.2963 16.8656 49.0879 13.4607C47.4696 10.9822 45.781 8.90247 44.4442 7.74139ZM48.9584 21.1811C49.486 24.5977 48.5788 29.5426 46.7608 32.8535C45.373 35.281 44.8687 35.8087 41.1549 38.408C37.402 41.0347 36.7726 41.3005 33.9112 41.7889C30.2835 42.3477 23.5756 41.3349 18.9669 39.4934C2.80317 33.0425 -2.41055 15.6077 9.31718 7.39929C14.3992 3.84231 22.9172 1.78271 28.3664 2.74466C31.2513 3.28819 38.5493 6.97487 41.5162 9.38304C44.6863 11.9984 48.4622 17.9756 48.9584 21.1811Z" fill="black"/>
</g>
<defs>
<filter id="filter0_d_1_924" x="0" y="0" width="52.3713" height="48.7668" filterUnits="userSpaceOnUse" color-interpolation-filters="sRGB">
<feFlood flood-opacity="0" result="BackgroundImageFix"/>
<feColorMatrix in="SourceAlpha" type="matrix" values="0 0 0 0 0 0 0 0 0 0 0 0 0 0 0 0 0 0 127 0" result="hardAlpha"/>
<feOffset dy="4"/>
<feComposite in2="hardAlpha" operator="out"/>
<feColorMatrix type="matrix" values="0 0 0 0 0 0 0 0 0 0 0 0 0 0 0 0 0 0 0.25 0"/>
<feBlend mode="normal" in2="BackgroundImageFix" result="effect1_dropShadow_1_924"/>
<feBlend mode="normal" in="SourceGraphic" in2="effect1_dropShadow_1_924" result="shape"/>
</filter>
</defs>
</svg>
